<svg viewBox="0 0 297 225" xmlns="http://www.w3.org/2000/svg" xmlns:xlink="http://www.w3.org/1999/xlink"><view id="answer" viewBox="283 100 8 13"/><svg width="8" height="13" viewBox="0 0 8 13" x="283" y="100" xmlns="http://www.w3.org/2000/svg"><g transform="translate(1 1)" fill="none" fill-rule="evenodd" opacity=".94"><path d="M3 8.25V6c.77 0 3-.71 3-3.107C6 1.326 4.653 0 3 0 1.343 0 0 1.29 0 2.893" stroke="#5D5D5D"/><circle fill="#5D5D5D" cx="3" cy="11" r="1"/></g></svg><view id="arrow-down-green" viewBox="243 118 29 17"/><svg width="29" height="17" viewBox="0 0 29 17" x="243" y="118" xmlns="http://www.w3.org/2000/svg"><title>Path</title><path d="M.534.57A1.857 1.857 0 000 1.877c0 .49.192.959.534 1.305l12.37 12.539a1.81 1.81 0 001.288.54 1.81 1.81 0 001.288-.54L27.85 3.18a1.86 1.86 0 00.507-1.8A1.833 1.833 0 0027.049.059c-.64-.167-1.32.031-1.776.517L14.192 11.81 3.111.575A1.81 1.81 0 001.823.032 1.81 1.81 0 00.534.571z" fill="#19AA57" fill-rule="evenodd"/></svg><view id="attention" viewBox="243 50 50 50"/><svg viewBox="0 0 50 50" width="50" height="50" x="243" y="50" xmlns="http://www.w3.org/2000/svg"><path d="M25 3c12.1 0 22 9.9 22 22s-9.9 22-22 22S3 37.1 3 25 12.9 3 25 3m0-3C11.2 0 0 11.2 0 25s11.2 25 25 25 25-11.2 25-25S38.8 0 25 0z" fill="#727272"/><path d="M23.4 28.8h3.3l.8-17.2h-4.9l.8 17.2zm1.6 7.7c1.5 0 2.5-1.1 2.5-2.4s-1-2.4-2.5-2.4-2.5 1.1-2.5 2.4 1 2.4 2.5 2.4z" fill="#878787"/></svg><view id="check-on" viewBox="267 135 24 24"/><svg width="24" height="24" viewBox="0 0 24 24" x="267" y="135" xmlns="http://www.w3.org/2000/svg"><defs><path d="M0 4c0-2.2 1.8-4 4-4h16c2.2 0 4 1.8 4 4v16c0 2.2-1.8 4-4 4H4c-2.2 0-4-1.8-4-4V4z" id="da"/><path id="dc" d="M0 0h375v667H0z"/></defs><g fill="none" fill-rule="evenodd"><mask id="db" fill="#fff"><use xlink:href="#da"/></mask><use fill="#D8D8D8" xlink:href="#da"/><g mask="url(#db)"><g transform="translate(-48 -340)"><mask id="dd" fill="#fff"><use xlink:href="#dc"/></mask><path fill="#19AA57" mask="url(#dd)" d="M43 335h34v34H43z"/></g></g><path stroke="#F3F3F3" stroke-width="3" stroke-linecap="round" stroke-linejoin="round" d="M7 11.913L10.76 17 19 6"/></g></svg><view id="cross" viewBox="243 159 24 24"/><svg viewBox="0 0 24 24" width="24" height="24" x="243" y="159" xmlns="http://www.w3.org/2000/svg"><g fill="#b5b5b5"><path d="M3.5 4.9c-.4-.4-.4-1 0-1.4s1-.4 1.4 0l15.6 15.6c.4.4.4 1 0 1.4-.4.4-1 .4-1.4 0L3.5 4.9z"/><path d="M19.1 3.5c.4-.4 1-.4 1.4 0 .4.4.4 1 0 1.4L4.9 20.5c-.4.4-1 .4-1.4 0-.4-.4-.4-1 0-1.4L19.1 3.5z"/></g></svg><view id="icon-close" viewBox="267 159 24 24"/><svg width="24" height="24" viewBox="0 0 24 24" x="267" y="159" xmlns="http://www.w3.org/2000/svg"><title>icon-close</title><path d="M11.988 10.574L5 3.586 3.586 5l6.988 6.988-6.988 6.988L5 20.39l6.988-6.988 6.988 6.988 1.414-1.414-6.988-6.988L20.39 5l-1.414-1.414z" fill-rule="nonzero" fill="#333"/></svg><view id="icon-edit" viewBox="243 183 24 24"/><svg width="24" height="24" viewBox="0 0 24 24" x="243" y="183" xmlns="http://www.w3.org/2000/svg"><title>icon-edit</title><path d="M19.071 7.757l2.121-2.121-2.828-2.828-2.121 2.12 2.828 2.83zm-1.414 1.415l-2.829-2.829L4.712 16.46l.056 2.773 2.773.056L17.657 9.172zm.707-9.193l5.657 5.657L8.352 21.305l-5.544-.113-.113-5.544L18.364-.021z" fill-rule="nonzero" fill="#333"/></svg><view id="icon-exit" viewBox="243 207 15 18"/><svg width="15" height="18" viewBox="0 0 15 18" x="243" y="207" xmlns="http://www.w3.org/2000/svg"><g fill="#000014" fill-rule="evenodd"><path d="M9.917 0v2H2.914c-.551 0-.997.45-.997 1.007v11.986c0 .557.446 1.007.997 1.007h7.003v2h-6.87a3.005 3.005 0 01-3-2.993V2.993a3.003 3.003 0 013-2.993h6.87z"/><rect x="5.917" y="8" width="8" height="2" rx="1"/><path d="M9.987 13.012a1 1 0 001.411.003l3.227-3.227a1 1 0 00-1.414-1.414L9.984 11.6a.995.995 0 00.003 1.41z"/><path d="M9.992 5.037a1 1 0 011.41-.003L14.63 8.26a1 1 0 01-1.414 1.414L9.988 6.448a.995.995 0 01.004-1.41z"/></g></svg><view id="icon-reload" viewBox="144 107 24 24"/><svg width="24" height="24" viewBox="0 0 24 24" x="144" y="107" xmlns="http://www.w3.org/2000/svg"><title>icon-reload</title><path d="M11.5 4.015A8 8 0 1020 12h-2a6 6 0 11-6.5-5.98v1.761l4.746-2.74L11.5 2.3v1.715z" fill="#333" fill-rule="evenodd"/></svg><view id="icon-user" viewBox="243 100 40 18"/><svg width="40" height="18" viewBox="0 0 40 18" x="243" y="100" xmlns="http://www.w3.org/2000/svg"><defs><circle id="ja" cx="8" cy="4" r="4"/></defs><g fill="none" fill-rule="evenodd"><path d="M-4-3h24v24H-4z"/><g stroke="#19AA57" stroke-width="2"><path d="M1.994 17h12.012A.998.998 0 0015 16c0-2.773-2.232-5-5-5H6c-2.773 0-5 2.224-5 5 0 .553.445 1 .994 1z"/><circle cx="8" cy="4" r="3"/></g><path d="M22-4h24v24H22z"/><path stroke="#19AA57" stroke-width="2" stroke-linecap="round" stroke-linejoin="round" d="M38.243 7L34 11.243 29.757 7"/></g></svg><view id="plus" viewBox="243 135 24 24"/><svg width="24" height="24" viewBox="0 0 24 24" x="243" y="135" xmlns="http://www.w3.org/2000/svg"><g fill="#19AA57" fill-rule="evenodd"><path d="M11 1a1 1 0 012 0v22a1 1 0 01-2 0V1z"/><path d="M23 11a1 1 0 010 2H1a1 1 0 010-2h22z"/></g></svg><view id="question" viewBox="168 107 24 24"/><svg width="24" height="24" viewBox="0 0 24 24" x="168" y="107" xmlns="http://www.w3.org/2000/svg"><g fill="none" fill-rule="evenodd"><rect width="20" height="20" x="2" y="2" stroke="#333" rx="10"/><path stroke="#333" d="M12 14.25V12c.77 0 3-.71 3-3.107C15 7.326 13.653 6 12 6c-1.657 0-3 1.29-3 2.893"/><circle cx="12" cy="17" r="1" fill="#333"/></g></svg><view id="save-card" viewBox="243 0 54 50"/><svg width="54" height="50" viewBox="0 0 54 50" x="243" xmlns="http://www.w3.org/2000/svg"><g fill-rule="nonzero" fill="none"><g transform="rotate(20 11.322 51.863)" stroke="#19AA57" stroke-width="2"><rect fill="#FFF" x="1" y="1" width="36" height="23" rx="3"/><path d="M2.5 8.208H36" stroke-linecap="round"/></g><g transform="translate(0 18)"><rect stroke="#19AA57" stroke-width="2.4" fill="#19AA57" x="1.2" y="11.2" width="22.6" height="19.6" rx="2.4"/><path d="M11 1.2A5.8 5.8 0 005.2 7v10.6a1.2 1.2 0 001.2 1.2h12.2a1.2 1.2 0 001.2-1.2V7A5.8 5.8 0 0014 1.2h-3z" stroke="#19AA57" stroke-width="2.4"/><circle fill="#FFF" cx="13" cy="19" r="3"/><path fill="#FFF" d="M12 20h2v5h-2z"/></g></g></svg><view id="sberbank" viewBox="0 133 127 24"/><svg width="127" height="24" viewBox="0 0 127 24" y="133" xmlns="http://www.w3.org/2000/svg"><g fill="#1A9F29"><path d="M33.026 14.713c.522.574 1.148.991 1.93 1.304.783.313 1.67.47 2.766.47.521 0 1.043-.052 1.46-.104.47-.053.835-.157 1.2-.313.366-.105.679-.261.992-.366.26-.156.522-.26.73-.365l-.365-.782-.626.313c-.209.104-.417.156-.678.26-.261.053-.522.157-.835.157-.313.052-.678.052-1.096.052-.782 0-1.46-.156-1.93-.47-.522-.312-.887-.73-1.2-1.2a6.25 6.25 0 01-.574-1.826c-.104-.73-.157-1.46-.157-2.295 0-.626.053-1.305.105-1.983a4.68 4.68 0 01.47-1.774c.26-.521.573-.939 1.043-1.304.47-.313 1.096-.522 1.878-.522.73 0 1.357.209 1.878.574.522.365.835.991.992 1.774h.834V3.757a13.48 13.48 0 00-.834-.314c-.313-.104-.626-.156-.992-.208-.365-.052-.678-.052-1.043-.105-.313 0-.626-.052-.887-.052-1.148 0-2.087.157-2.922.47a5.37 5.37 0 00-1.982 1.356c-.522.574-.887 1.305-1.148 2.14-.261.834-.365 1.826-.365 2.869 0 .991.104 1.93.365 2.713.156.887.522 1.565.991 2.087zm51.026 1.357a4.441 4.441 0 001.722-.522c.522-.313.939-.73 1.2-1.305.313-.573.47-1.356.47-2.347 0-.73-.105-1.305-.314-1.826-.208-.522-.521-.887-.99-1.253-.47-.313-1.044-.521-1.775-.678-.73-.156-1.617-.209-2.66-.209h-1.096V4.852c0-.313.052-.522.208-.626.157-.104.418-.104.835-.104h1.565c.47 0 .887 0 1.2.052.313.052.574.104.73.26.21.157.366.366.47.627.105.26.261.626.366 1.096h.678v-2.87h-9.6v.417c.052 0 .104.053.26.053.157.052.262.104.314.156.052.052.104.157.156.313 0 .157.052.313.052.522v9.965c0 .209 0 .417-.052.522 0 .156-.052.26-.156.313-.052.052-.157.156-.313.156-.157.053-.209.053-.261.053v.417h4.852c.783 0 1.46 0 2.14-.104zm-3.182-.94a.474.474 0 01-.157-.365c0-.156-.052-.365-.052-.626V8.713h1.096c.99 0 1.721.26 2.139.783.417.521.626 1.356.626 2.504 0 .783-.052 1.357-.209 1.826-.156.47-.313.783-.574 1.044-.26.208-.522.365-.782.47-.314.051-.627.103-.94.103-.313-.052-.574-.052-.73-.104-.157-.052-.313-.104-.417-.209zm-10.54.627c-.052 0-.104-.053-.26-.053-.157-.052-.261-.104-.313-.156-.053-.052-.105-.157-.157-.313 0-.157-.052-.313-.052-.522v-3.6h1.304c.678 0 1.305-.052 1.93-.156a4.942 4.942 0 001.618-.574c.47-.313.835-.679 1.096-1.253.26-.521.417-1.252.417-2.139 0-.834-.156-1.513-.365-1.982-.261-.47-.626-.887-1.044-1.148-.417-.261-.939-.418-1.513-.47a19.088 19.088 0 00-1.774-.104h-5.112v.417c.052 0 .104.053.26.053.157.052.261.104.313.156.052.052.105.157.157.313 0 .157.052.313.052.522v9.913c0 .209 0 .417-.052.522 0 .156-.052.26-.157.313-.052.052-.156.156-.313.156-.156.052-.208.052-.26.052v.418h4.225v-.365zm-.73-11.01c0-.104 0-.208.052-.312 0-.105.052-.157.105-.209.052-.052.156-.104.313-.104.156 0 .313-.052.573-.052.314 0 .627.052.94.104.313.104.521.26.782.47.209.208.365.521.522.886.104.366.156.835.156 1.357 0 1.096-.156 1.93-.47 2.504-.312.574-.886.887-1.669.887H69.6v-5.53zM64.383 13.2h-.835a9.597 9.597 0 01-.313 1.2c-.105.313-.209.522-.418.678-.156.157-.417.261-.73.261-.313.052-.73.052-1.304.052-.522 0-.94 0-1.2-.052-.313-.052-.522-.104-.679-.209-.156-.104-.26-.26-.26-.417-.053-.209-.053-.417-.053-.73v-4.07h2.244c.208 0 .417.052.626.052.209 0 .417.052.626.105.209.052.365.104.522.208v-1.67a1.562 1.562 0 01-.522.21c-.209.052-.417.104-.626.104-.209.052-.418.052-.626.052H58.59V4.696c0-.261.052-.47.105-.574.104-.105.26-.105.521-.105h1.41c.469 0 .886 0 1.2.053.312.052.573.104.73.26.208.157.365.366.47.627.103.26.26.626.364 1.095h.679V3.287h-8.974v.417c.052 0 .104.053.26.053.157.052.261.104.314.156.052.052.104.157.156.313 0 .157.052.313.052.522v9.913c0 .209 0 .417-.052.522 0 .156-.052.26-.156.313-.053.052-.157.156-.313.156-.157.052-.21.052-.261.052v.418h9.287V13.2zm-14.192 2.87a4.441 4.441 0 001.722-.522c.522-.313.94-.73 1.252-1.305.313-.573.47-1.356.47-2.347 0-.73-.105-1.305-.313-1.826-.209-.522-.522-.887-.992-1.253-.47-.313-1.043-.521-1.773-.678-.73-.156-1.618-.209-2.661-.209H46.8V4.852c0-.313.052-.522.209-.626.156-.104.417-.104.834-.104h1.566c.47 0 .887 0 1.2.052.313.052.574.104.73.26.209.157.365.366.47.627.104.26.26.626.365 1.096h.678v-2.87h-9.6v.417c.052 0 .105.053.261.053.157.052.26.104.313.156.052.052.104.157.157.313 0 .157.052.313.052.522v9.912c0 .209 0 .365-.052.522 0 .156-.053.26-.157.313-.052.052-.156.156-.313.156-.156.052-.209.052-.26.052v.47h4.851c.783 0 1.409 0 2.087-.104zm-3.182-.94a.474.474 0 01-.157-.365c0-.156-.052-.365-.052-.626V8.713h1.096c.991 0 1.721.26 2.139.783.417.521.626 1.356.626 2.504 0 .783-.052 1.357-.209 1.826-.156.47-.313.783-.574 1.044-.26.208-.521.365-.782.47-.313.051-.626.103-.94.103-.313-.052-.521-.052-.73-.104-.156-.052-.313-.104-.417-.209zm-15.444 4.696h94.591v1.252H31.565zm87.026-8.504c.261.365.47.678.73.991.21.313.47.626.679.94.209.312.417.625.678.938.261.366.47.679.679 1.044.208.313.365.678.521.991l4.383.052c-.47-.47-.887-.939-1.357-1.408-.417-.47-.782-.887-1.043-1.148-.418-.47-.783-.887-1.096-1.252-.365-.418-.678-.783-.991-1.148a16.993 16.993 0 01-.887-1.148c-.26-.365-.574-.835-.835-1.252l.209-.261c.313-.418.678-.835 1.096-1.357.417-.521.834-1.043 1.304-1.513.47-.521.887-.991 1.356-1.408.47-.418.835-.73 1.2-.992h-3.026c-.104.261-.26.574-.47.94-.208.365-.417.782-.73 1.2-.26.417-.574.886-.834 1.356-.314.47-.574.887-.887 1.304-.313.418-.574.835-.835 1.148-.261.365-.47.626-.626.887l.782 1.096z"/><path d="M118.226 15.757c-.052 0-.104-.053-.26-.053-.157-.052-.262-.104-.314-.156-.052-.052-.104-.157-.156-.313 0-.157-.053-.313-.053-.522V4.8c0-.209 0-.417.053-.522 0-.156.052-.26.156-.313.052-.052.157-.104.313-.156.157-.052.209-.052.261-.052v-.47H114v.417c.052 0 .104.053.26.053.157.052.262.104.314.156.052.052.104.157.156.313 0 .157.053.313.053.522v9.913c0 .209 0 .417-.053.522 0 .156-.052.26-.156.313-.052.052-.157.156-.313.156-.157.052-.209.052-.261.052v.418h4.226v-.365zm-28.069-1.148c.156-.73.47-1.774.886-3.079h4.122l.574 1.67c.261.73.47 1.357.574 1.878.157.522.26.887.26 1.148h3.288c-.157-.26-.313-.626-.522-1.043a14.528 14.528 0 01-.73-1.826l-2.974-8.453c-.157-.365-.209-.678-.261-.939-.052-.26-.052-.47-.104-.626h-3.705v.418c.052 0 .105.052.261.052.157.052.261.104.313.156.052.052.104.157.157.313v.261c0 .313-.053.626-.157.835l-2.087 5.113c-.365.94-.73 1.774-.991 2.4-.261.626-.522 1.2-.678 1.617-.21.418-.366.783-.522 1.044-.157.26-.261.47-.365.678h2.347c.053-.365.157-.887.314-1.617zm2.973-9.183l1.722 5.217h-3.548l1.826-5.217zm11.687 10.331h-.104c-.052 0-.104-.053-.26-.053-.157-.052-.262-.104-.314-.156-.052-.052-.104-.157-.156-.313 0-.157-.053-.313-.053-.522V9.757h5.01v4.904c0 .209 0 .417-.053.522 0 .156-.052.26-.157.313-.052.052-.156.156-.313.156-.156.052-.208.052-.26.052v.418h4.226v-.418c-.053 0-.105-.052-.261-.052-.157-.052-.261-.104-.313-.156-.052-.053-.105-.157-.157-.313 0-.157-.052-.313-.052-.522V4.696c0-.209 0-.418.052-.522 0-.157.052-.261.157-.313.052-.052.156-.104.313-.157.156-.052.208-.052.26-.052v-.365h-4.121v.417c.052 0 .104.053.26.053.157.052.262.104.314.156.052.052.104.157.156.313 0 .157.052.313.052.522V8.87h-5.008V4.748c0-.209 0-.418.052-.522 0-.156.052-.26.156-.313.053-.052.157-.104.314-.156.156-.053.208-.053.26-.053v-.417h-4.225v.417c.051 0 .104.053.26.053.157.052.261.104.313.156.052.052.105.157.157.313 0 .157.052.313.052.522v9.965c0 .209 0 .365-.052.522 0 .156-.052.26-.157.313-.052.052-.156.156-.313.156-.156.053-.209.053-.26.053v.417h4.225v-.417zM22.957 4.643l-.783-1.095-14.452 8.295L.73 7.826a6.46 6.46 0 00-.313 1.357l7.357 4.226 15.183-8.766z"/><path d="M7.722 14.974l-7.513-4.33c-.052.26-.052.573-.052.834 0 6.835 5.53 12.418 12.417 12.418 6.835 0 12.417-5.53 12.417-12.418 0-2.035-.47-3.965-1.356-5.635l-15.913 9.13z"/><path d="M21.183 2.504c-.366-.365-.73-.626-1.096-.939L7.722 8.713 1.774 5.322c-.209.365-.417.782-.626 1.2l6.522 3.756 13.513-7.774z"/><path d="M18.835.73c-.47-.26-.94-.521-1.461-.73L7.722 5.583 3.392 3.13c-.314.313-.575.679-.888 1.044L7.67 7.148 18.835.73z"/></g></svg><view id="sberbank-id" viewBox="0 107 144 26"/><svg width="144" height="26" viewBox="0 0 144 26" y="107" xmlns="http://www.w3.org/2000/svg"><g fill="#2F9A41" fill-rule="evenodd"><path d="M3.479 3.382l4.736 2.731L18.805 0c.542.232 1.065.5 1.567.798L8.215 7.84 2.533 4.557c.294-.41.61-.801.946-1.175zM1.786 5.72l6.43 3.707 13.443-7.76c.419.319.818.662 1.197 1.027l-14.64 8.45-7.097-4.095c.199-.457.422-.9.667-1.33zM.606 8.432l7.61 4.388 15.656-9.033c.32.385.618.788.895 1.207L8.215 14.536.235 9.93c.095-.51.22-1.01.371-1.5zm-.575 3.1l8.184 4.73L25.502 6.25A13.52 13.52 0 0127 12.457C27 19.937 20.956 26 13.5 26S0 19.937 0 12.457c0-.31.01-.619.031-.924z"/><path d="M40.086 19.974C35.508 19.974 33 17.25 33 13.09c0-4.41 2.47-7.037 7.01-7.037 2.3 0 3.458.48 3.971.71l-.55 1.591c-.76-.23-1.616-.537-3.383-.537C37.351 7.8 35.09 9.275 35.09 12.9c0 3.7 2.356 5.31 5.338 5.31 1.273 0 2.318-.19 3.135-.42l.475 1.59c-.74.288-1.862.595-3.952.595zm9.746-.02c-2.85 0-4.598-1.802-4.598-6.02 0-2.147.4-5.521 1.596-6.652C47.856 6.285 50.65 5.614 53.898 5l.323 1.802c-2.888.499-5.434.959-6.08 1.572-.551.537-.798 1.764-.893 2.685.874-.48 2.052-.94 3.515-.94 2.489 0 4.085 1.246 4.085 4.429 0 3.739-2.166 5.407-5.016 5.407zm.152-1.61c2.242 0 2.869-1.917 2.869-3.72 0-1.667-.722-2.952-2.584-2.952-1.197 0-2.166.422-3.097.901-.019.345-.019.844-.019 1.189 0 3.125.931 4.582 2.83 4.582zm11.512 1.668c-3.116 0-5.11-1.227-5.11-5.292 0-4.237 2.09-5.675 4.844-5.675 2.774 0 3.97 1.88 3.97 5.273v.71h-6.82c.038 2.856 1.558 3.316 3.572 3.316.741 0 2.033-.268 2.679-.422l.323 1.592c-.57.191-1.881.498-3.458.498zm-3.078-6.384h4.712c.019-1.86-.665-3.125-2.128-3.125-1.425 0-2.432 1.073-2.584 3.125zM67.308 24V9.314h1.977v.824c.608-.46 1.71-1.073 2.773-1.073 2.736 0 4.313 1.725 4.313 5.119 0 4.371-2.508 5.809-5.224 5.809-.78 0-1.387-.096-1.862-.153V24h-1.976zm3.915-5.618c2.07 0 3.134-1.668 3.134-3.892 0-2.109-.589-3.72-2.811-3.72-.874 0-1.92.595-2.261.787v6.634c.418.057.912.191 1.938.191zm11.417 1.573c-2.85 0-4.598-1.803-4.598-6.02 0-2.148.4-5.522 1.596-6.653 1.026-.997 3.819-1.668 7.068-2.282l.323 1.802c-2.888.499-5.434.959-6.08 1.572-.551.537-.798 1.764-.893 2.685.874-.48 2.052-.94 3.515-.94 2.489 0 4.084 1.246 4.084 4.429 0 3.739-2.165 5.407-5.015 5.407zm.152-1.61c2.242 0 2.869-1.918 2.869-3.72 0-1.668-.722-2.953-2.584-2.953-1.197 0-2.166.422-3.097.901-.019.345-.019.844-.019 1.189 0 3.125.93 4.582 2.83 4.582zm9.365 1.59c-1.976 0-3.135-1.035-3.135-3.01 0-2.588 2.318-3.144 4.123-3.163l2.28-.038v-1.17c0-1.457-.76-1.764-2.432-1.764-.988 0-2.128.326-2.736.48l-.399-1.515c.665-.288 1.995-.69 3.572-.69 2.565 0 3.933.805 3.933 2.952v5.484c0 .651.456.786.95.824l-.095 1.553c-.133.02-.266.02-.418.02-.97 0-2.052-.346-2.223-1.266-.57.402-1.634 1.303-3.42 1.303zm.475-1.59c1.102 0 2.394-.749 2.793-.921v-2.416l-2.223.096c-1.425.038-2.242.69-2.242 1.649 0 1.188.684 1.591 1.672 1.591zm8.036 1.437V9.314h1.976v4.429h4.901v-4.43h1.976v10.469h-1.976v-4.448h-4.901v4.448h-1.976zm20.194.173c-.988-.058-2.127-.288-3.495-1.975l-2.888-3.566 4.047-5.1h2.26l-4.16 4.946 1.995 2.301c.911 1.055 1.728 1.668 2.564 1.898l-.323 1.496zm-8.435-.173V9.314h1.976v10.468h-1.976zm14.513 0V6.227h2.033v13.555h-2.033zm5.547 0V6.227h3.952c4.426 0 7.561 2.224 7.561 6.73 0 4.735-2.869 6.825-7.447 6.825h-4.066zm2.014-1.668h2.26c3.363 0 5.206-1.687 5.206-4.946 0-3.586-2.109-5.273-5.585-5.273H134.5v10.219z"/></g></svg><view id="spasibo-logo" viewBox="0 0 243 107"/><svg viewBox="0 0 243.4 106.6" width="243" height="107" xmlns="http://www.w3.org/2000/svg"><path fill="#00af60" d="M63.4 31.4h-21l10.5-10.5z"/><path fill="#16b36c" d="M52.9 20.9L42.4 31.4 31.9 20.9z"/><path fill="#36b45f" d="M84.4 31.4h-21l10.5-10.5z"/><path fill="#f05e34" d="M126.4 31.4h-21l10.5-10.5z"/><path fill="#f16c4d" d="M136.9 20.9l-10.5 10.5-10.5-10.5z"/><path fill="#ee5053" d="M147.4 31.4h-21l10.5-10.5z"/><path fill="#a3539f" d="M178.9 20.9l-10.5 10.5-10.5-10.5z"/><path fill="#803f97" d="M189.4 31.4h-21l10.5-10.5z"/><path fill="#b35084" d="M168.4 31.4h-21l10.5-10.5z"/><path fill="#713e97" d="M210.4 31.4h-21l10.5-10.5z"/><path fill="#00ad6c" d="M42.4 31.4h-21l10.5-10.5z"/><path fill="#00b69e" d="M21 22.3H0l10.5-10.5z"/><path fill="#88c557" d="M74.9 13.4h-21L64.4 2.9z"/><path fill="#f17481" d="M133.7 0h21l-10.5 10.5z"/><path fill="#24b9a8" d="M21 22.3L10.5 32.8 0 22.3z"/><path fill="#9bcf89" d="M65.6 82.9L55 93.4 44.5 82.9z"/><path fill="#c4db74" d="M91 96.1l10.5-10.5L112 96.1z"/><path fill="#dfe681" d="M91 96.1h21l-10.5 10.5z"/><path fill="#c588bb" d="M189.4 73.4l-10.5 10.5-10.5-10.5z"/><path fill="#75c7b1" d="M42.4 73.4L31.9 83.9 21.4 73.4z"/><path fill="#b9d76d" d="M84.4 73.4L73.9 83.9 63.4 73.4z"/><path fill="#cfdf6e" d="M94.9 83.9h-21l10.5-10.5z"/><path fill="#e7c667" d="M84.4 73.4l10.5 10.5 10.5-10.5z"/><path fill="#fcbb66" d="M147.4 73.4l-10.5 10.5-10.5-10.5z"/><path fill="#ffc96c" d="M136.9 83.9h-21l10.5-10.5z"/><path fill="#fcbd5e" d="M126.4 73.4l-10.5 10.5-10.5-10.5z"/><path fill="#f394b1" d="M168.4 73.4l-10.5 10.5-10.5-10.5z"/><path fill="#b489be" d="M199.9 83.9h-21l10.5-10.5z"/><path fill="#9a82bc" d="M210.4 73.4l-10.5 10.5-10.5-10.5z"/><path fill="#4ebea6" d="M10.9 62.9h21L21.4 73.4z"/><path fill="#a5cf5d" d="M94.9 62.9L84.4 73.4 73.9 62.9z"/><path fill="#61c2a7" d="M42.4 73.4h-21l10.5-10.5z"/><path fill="#65c194" d="M52.9 62.9L42.4 73.4 31.9 62.9z"/><path fill="#80c78f" d="M63.4 73.4h-21l10.5-10.5z"/><path fill="#8dc86e" d="M73.9 62.9L63.4 73.4 52.9 62.9z"/><path fill="#9fcd5f" d="M84.4 73.4h-21l10.5-10.5z"/><path fill="#faaa47" d="M115.9 62.9l-10.5 10.5-10.5-10.5z"/><path fill="#dfb452" d="M84.4 73.4h21L94.9 62.9z"/><path fill="#f9a343" d="M136.9 62.9l-10.5 10.5-10.5-10.5z"/><path fill="#f9ab5a" d="M147.4 73.4h-21l10.5-10.5z"/><path fill="#fab044" d="M126.4 73.4h-21l10.5-10.5z"/><path fill="#f6966b" d="M157.9 62.9l-10.5 10.5-10.5-10.5z"/><path fill="#f38ca8" d="M168.4 73.4h-21l10.5-10.5z"/><path fill="#c074af" d="M178.9 62.9l-10.5 10.5-10.5-10.5z"/><path fill="#c07bb3" d="M189.4 73.4h-21l10.5-10.5z"/><path fill="#9672b1" d="M199.9 62.9l-10.5 10.5-10.5-10.5z"/><path fill="#927db8" d="M210.4 73.4h-21l10.5-10.5z"/><path fill="#8a78b6" d="M220.9 62.9l-10.5 10.5-10.5-10.5z"/><path fill="#3dbb9f" d="M31.9 62.9h-21l10.5-10.5z"/><path fill="#f69138" d="M147.4 52.4l-10.5 10.5-10.5-10.5z"/><path fill="#f69138" d="M126.4 52.4l-10.5 10.5-10.5-10.5z"/><path fill="#91c85c" d="M94.9 62.9h-21l10.5-10.5z"/><path fill="#44ba8c" d="M52.9 62.9h-21l10.5-10.5z"/><path fill="#41bb9b" d="M42.4 52.4L31.9 62.9 21.4 52.4z"/><path fill="#77c05b" d="M73.9 62.9h-21l10.5-10.5z"/><path fill="#6cbf66" d="M84.4 52.4L73.9 62.9 63.4 52.4z"/><path fill="#79c15f" d="M63.4 52.4L52.9 62.9 42.4 52.4z"/><path fill="none" d="M84.4 52.4l10.5 10.5 10.5-10.5z"/><path fill="#f7983b" d="M115.9 62.9h-21l10.5-10.5z"/><path fill="#f48768" d="M157.9 62.9h-21l10.5-10.5z"/><path fill="#f89c44" d="M136.9 62.9h-21l10.5-10.5z"/><path fill="#b56cab" d="M178.9 62.9h-21l10.5-10.5z"/><path fill="#9d69ab" d="M168.4 52.4l10.5 10.5 10.5-10.5z"/><path fill="#d770ab" d="M168.4 52.4l-10.5 10.5-10.5-10.5z"/><path fill="#8d66ab" d="M199.9 62.9h-21l10.5-10.5z"/><path fill="#8165ab" d="M210.4 52.4l-10.5 10.5-10.5-10.5z"/><path fill="#836eb0" d="M220.9 62.9h-21l10.5-10.5z"/><path fill="#a58bc0" d="M222.4 47.3l.1.1 10.3 10.3 10.4-10.3.1-.1-.1-.1-10.4-10.3-10.3 10.3z"/><path fill="#957bb7" d="M222.4 47.4l10.5-10.5 10.5 10.5z"/><path fill="#f37932" d="M136.9 41.9l-10.5 10.5-10.5-10.5z"/><path fill="#6cbe64" d="M94.9 41.9L84.4 52.4 73.9 41.9z"/><path fill="#b4b457" d="M105.4 52.4L94.9 62.9 84.4 52.4z"/><path fill="#34b780" d="M52.9 41.9L42.4 52.4 31.9 41.9z"/><path fill="#00b593" d="M31.9 41.9L21.4 52.4 10.9 41.9z"/><path fill="#50b85e" d="M73.9 41.9L63.4 52.4 52.9 41.9z"/><path fill="#f58745" d="M115.9 41.9l-10.5 10.5-10.5-10.5z"/><path fill="#f06673" d="M157.9 41.9l-10.5 10.5-10.5-10.5z"/><path fill="#af549f" d="M178.9 41.9l-10.5 10.5-10.5-10.5z"/><path fill="#8856a2" d="M199.9 41.9l-10.5 10.5-10.5-10.5z"/><path fill="#f48139" d="M147.4 52.4h-21l10.5-10.5z"/><path fill="#f48139" d="M126.4 52.4h-21l10.5-10.5z"/><path fill="#00b590" d="M42.4 52.4h-21l10.5-10.5z"/><path fill="#5cbb61" d="M63.4 52.4h-21l10.5-10.5z"/><path fill="#60bc60" d="M84.4 52.4h-21l10.5-10.5z"/><path fill="#cb9c49" d="M84.4 52.4h21L94.9 41.9z"/><path fill="#9a58a2" d="M168.4 52.4h21l-10.5-10.5z"/><path fill="#c966a7" d="M168.4 52.4h-21l10.5-10.5z"/><path fill="#7f5da7" d="M210.4 52.4h-21l10.5-10.5z"/><path fill="#7a5ca6" d="M220.9 41.9l-10.5 10.5-10.5-10.5z"/><path fill="#f27237" d="M136.9 41.9h-21l10.5-10.5z"/><path fill="#00b273" d="M52.9 41.9h-21l10.5-10.5z"/><path fill="#5dbb5c" d="M94.9 41.9h-21l10.5-10.5z"/><path fill="#a84e9d" d="M178.9 41.9h-21l10.5-10.5z"/><path fill="#02b37c" d="M42.4 31.4L31.9 41.9 21.4 31.4z"/><path fill="#00ae89" d="M31.9 41.9h-21l10.5-10.5z"/><path fill="#28b467" d="M73.9 41.9h-21l10.5-10.5z"/><path fill="#05b268" d="M63.4 31.4L52.9 41.9 42.4 31.4z"/><path fill="#4cb863" d="M84.4 31.4L73.9 41.9 63.4 31.4z"/><path fill="#f37b41" d="M115.9 41.9h-21l10.5-10.5z"/><path fill="#f16937" d="M126.4 31.4l-10.5 10.5-10.5-10.5z"/><path fill="#f06360" d="M147.4 31.4l-10.5 10.5-10.5-10.5z"/><path fill="#e1566d" d="M157.9 41.9h-21l10.5-10.5z"/><path fill="#ca5483" d="M168.4 31.4l-10.5 10.5-10.5-10.5z"/><path fill="#86479b" d="M189.4 31.4l-10.5 10.5-10.5-10.5z"/><path fill="#75c064" d="M105.4 31.4L94.9 41.9 84.4 31.4z"/><path fill="#824f9f" d="M199.9 41.9h-21l10.5-10.5z"/><path fill="#734c9d" d="M210.4 31.4l-10.5 10.5-10.5-10.5z"/><path fill="#7354a2" d="M220.9 41.9h-21l10.5-10.5z"/><g><path fill="#00af60" d="M63.4 31.4h-21l10.5-10.5z"/><path fill="#16b36c" d="M52.9 20.9L42.4 31.4 31.9 20.9z"/><path fill="#36b45f" d="M84.4 31.4h-21l10.5-10.5z"/><path fill="#f05e34" d="M126.4 31.4h-21l10.5-10.5z"/><path fill="#f16c4d" d="M136.9 20.9l-10.5 10.5-10.5-10.5z"/><path fill="#ee5053" d="M147.4 31.4h-21l10.5-10.5z"/><path fill="#a3539f" d="M178.9 20.9l-10.5 10.5-10.5-10.5z"/><path fill="#803f97" d="M189.4 31.4h-21l10.5-10.5z"/><path fill="#b35084" d="M168.4 31.4h-21l10.5-10.5z"/><path fill="#713e97" d="M210.4 31.4h-21l10.5-10.5z"/><path fill="#00ad6c" d="M42.4 31.4h-21l10.5-10.5z"/><path fill="#00b69e" d="M21 22.3H0l10.5-10.5z"/><path fill="#88c557" d="M74.9 13.4h-21L64.4 2.9z"/><path fill="#f17481" d="M133.7 0h21l-10.5 10.5z"/><path fill="#24b9a8" d="M21 22.3L10.5 32.8 0 22.3z"/><path fill="#9bcf89" d="M65.6 82.9L55 93.4 44.5 82.9z"/><path fill="#c4db74" d="M91 96.1l10.5-10.5L112 96.1z"/><path fill="#dfe681" d="M91 96.1h21l-10.5 10.5z"/><path fill="#c588bb" d="M189.4 73.4l-10.5 10.5-10.5-10.5z"/><path fill="#75c7b1" d="M42.4 73.4L31.9 83.9 21.4 73.4z"/><path fill="#b9d76d" d="M84.4 73.4L73.9 83.9 63.4 73.4z"/><path fill="#cfdf6e" d="M94.9 83.9h-21l10.5-10.5z"/><path fill="#e7c667" d="M84.4 73.4l10.5 10.5 10.5-10.5z"/><path fill="#fcbb66" d="M147.4 73.4l-10.5 10.5-10.5-10.5z"/><path fill="#ffc96c" d="M136.9 83.9h-21l10.5-10.5z"/><path fill="#fcbd5e" d="M126.4 73.4l-10.5 10.5-10.5-10.5z"/><path fill="#f394b1" d="M168.4 73.4l-10.5 10.5-10.5-10.5z"/><path fill="#b489be" d="M199.9 83.9h-21l10.5-10.5z"/><path fill="#9a82bc" d="M210.4 73.4l-10.5 10.5-10.5-10.5z"/><path fill="#4ebea6" d="M10.9 62.9h21L21.4 73.4z"/><path fill="#a5cf5d" d="M94.9 62.9L84.4 73.4 73.9 62.9z"/><path fill="#61c2a7" d="M42.4 73.4h-21l10.5-10.5z"/><path fill="#65c194" d="M52.9 62.9L42.4 73.4 31.9 62.9z"/><path fill="#80c78f" d="M63.4 73.4h-21l10.5-10.5z"/><path fill="#8dc86e" d="M73.9 62.9L63.4 73.4 52.9 62.9z"/><path fill="#9fcd5f" d="M84.4 73.4h-21l10.5-10.5z"/><path fill="#faaa47" d="M115.9 62.9l-10.5 10.5-10.5-10.5z"/><path fill="#dfb452" d="M84.4 73.4h21L94.9 62.9z"/><path fill="#f9a343" d="M136.9 62.9l-10.5 10.5-10.5-10.5z"/><path fill="#f9ab5a" d="M147.4 73.4h-21l10.5-10.5z"/><path fill="#fab044" d="M126.4 73.4h-21l10.5-10.5z"/><path fill="#f6966b" d="M157.9 62.9l-10.5 10.5-10.5-10.5z"/><path fill="#f38ca8" d="M168.4 73.4h-21l10.5-10.5z"/><path fill="#c074af" d="M178.9 62.9l-10.5 10.5-10.5-10.5z"/><path fill="#c07bb3" d="M189.4 73.4h-21l10.5-10.5z"/><path fill="#9672b1" d="M199.9 62.9l-10.5 10.5-10.5-10.5z"/><path fill="#927db8" d="M210.4 73.4h-21l10.5-10.5z"/><path fill="#8a78b6" d="M220.9 62.9l-10.5 10.5-10.5-10.5z"/><path fill="#3dbb9f" d="M31.9 62.9h-21l10.5-10.5z"/><path fill="#f69138" d="M147.4 52.4l-10.5 10.5-10.5-10.5z"/><path fill="#f69138" d="M126.4 52.4l-10.5 10.5-10.5-10.5z"/><path fill="#91c85c" d="M94.9 62.9h-21l10.5-10.5z"/><path fill="#44ba8c" d="M52.9 62.9h-21l10.5-10.5z"/><path fill="#41bb9b" d="M42.4 52.4L31.9 62.9 21.4 52.4z"/><path fill="#77c05b" d="M73.9 62.9h-21l10.5-10.5z"/><path fill="#6cbf66" d="M84.4 52.4L73.9 62.9 63.4 52.4z"/><path fill="#79c15f" d="M63.4 52.4L52.9 62.9 42.4 52.4z"/><path fill="none" d="M84.4 52.4l10.5 10.5 10.5-10.5z"/><path fill="#f7983b" d="M115.9 62.9h-21l10.5-10.5z"/><path fill="#f48768" d="M157.9 62.9h-21l10.5-10.5z"/><path fill="#f89c44" d="M136.9 62.9h-21l10.5-10.5z"/><path fill="#b56cab" d="M178.9 62.9h-21l10.5-10.5z"/><path fill="#9d69ab" d="M168.4 52.4l10.5 10.5 10.5-10.5z"/><path fill="#d770ab" d="M168.4 52.4l-10.5 10.5-10.5-10.5z"/><path fill="#8d66ab" d="M199.9 62.9h-21l10.5-10.5z"/><path fill="#8165ab" d="M210.4 52.4l-10.5 10.5-10.5-10.5z"/><path fill="#836eb0" d="M220.9 62.9h-21l10.5-10.5z"/><path fill="#a58bc0" d="M222.4 47.3l.1.1 10.3 10.3 10.4-10.3.1-.1-.1-.1-10.4-10.3-10.3 10.3z"/><path fill="#957bb7" d="M222.4 47.4l10.5-10.5 10.5 10.5z"/><path fill="#f37932" d="M136.9 41.9l-10.5 10.5-10.5-10.5z"/><path fill="#6cbe64" d="M94.9 41.9L84.4 52.4 73.9 41.9z"/><path fill="#b4b457" d="M105.4 52.4L94.9 62.9 84.4 52.4z"/><path fill="#34b780" d="M52.9 41.9L42.4 52.4 31.9 41.9z"/><path fill="#00b593" d="M31.9 41.9L21.4 52.4 10.9 41.9z"/><path fill="#50b85e" d="M73.9 41.9L63.4 52.4 52.9 41.9z"/><path fill="#f58745" d="M115.9 41.9l-10.5 10.5-10.5-10.5z"/><path fill="#f06673" d="M157.9 41.9l-10.5 10.5-10.5-10.5z"/><path fill="#af549f" d="M178.9 41.9l-10.5 10.5-10.5-10.5z"/><path fill="#8856a2" d="M199.9 41.9l-10.5 10.5-10.5-10.5z"/><path fill="#f48139" d="M147.4 52.4h-21l10.5-10.5z"/><path fill="#f48139" d="M126.4 52.4h-21l10.5-10.5z"/><path fill="#00b590" d="M42.4 52.4h-21l10.5-10.5z"/><path fill="#5cbb61" d="M63.4 52.4h-21l10.5-10.5z"/><path fill="#60bc60" d="M84.4 52.4h-21l10.5-10.5z"/><path fill="#cb9c49" d="M84.4 52.4h21L94.9 41.9z"/><path fill="#9a58a2" d="M168.4 52.4h21l-10.5-10.5z"/><path fill="#c966a7" d="M168.4 52.4h-21l10.5-10.5z"/><path fill="#7f5da7" d="M210.4 52.4h-21l10.5-10.5z"/><path fill="#7a5ca6" d="M220.9 41.9l-10.5 10.5-10.5-10.5z"/><path fill="#f27237" d="M136.9 41.9h-21l10.5-10.5z"/><path fill="#00b273" d="M52.9 41.9h-21l10.5-10.5z"/><path fill="#5dbb5c" d="M94.9 41.9h-21l10.5-10.5z"/><path fill="#a84e9d" d="M178.9 41.9h-21l10.5-10.5z"/><path fill="#02b37c" d="M42.4 31.4L31.9 41.9 21.4 31.4z"/><path fill="#00ae89" d="M31.9 41.9h-21l10.5-10.5z"/><path fill="#28b467" d="M73.9 41.9h-21l10.5-10.5z"/><path fill="#05b268" d="M63.4 31.4L52.9 41.9 42.4 31.4z"/><path fill="#4cb863" d="M84.4 31.4L73.9 41.9 63.4 31.4z"/><path fill="#f37b41" d="M115.9 41.9h-21l10.5-10.5z"/><path fill="#f16937" d="M126.4 31.4l-10.5 10.5-10.5-10.5z"/><path fill="#f06360" d="M147.4 31.4l-10.5 10.5-10.5-10.5z"/><path fill="#e1566d" d="M157.9 41.9h-21l10.5-10.5z"/><path fill="#ca5483" d="M168.4 31.4l-10.5 10.5-10.5-10.5z"/><path fill="#86479b" d="M189.4 31.4l-10.5 10.5-10.5-10.5z"/><path fill="#75c064" d="M105.4 31.4L94.9 41.9 84.4 31.4z"/><path fill="#824f9f" d="M199.9 41.9h-21l10.5-10.5z"/><path fill="#734c9d" d="M210.4 31.4l-10.5 10.5-10.5-10.5z"/><path fill="#7354a2" d="M220.9 41.9h-21l10.5-10.5z"/></g><g><path fill="#00af60" d="M63.4 31.4h-21l10.5-10.5z"/><path fill="#16b36c" d="M52.9 20.9L42.4 31.4 31.9 20.9z"/><path fill="#36b45f" d="M84.4 31.4h-21l10.5-10.5z"/><path fill="#f05e34" d="M126.4 31.4h-21l10.5-10.5z"/><path fill="#f16c4d" d="M136.9 20.9l-10.5 10.5-10.5-10.5z"/><path fill="#ee5053" d="M147.4 31.4h-21l10.5-10.5z"/><path fill="#a3539f" d="M178.9 20.9l-10.5 10.5-10.5-10.5z"/><path fill="#803f97" d="M189.4 31.4h-21l10.5-10.5z"/><path fill="#b35084" d="M168.4 31.4h-21l10.5-10.5z"/><path fill="#713e97" d="M210.4 31.4h-21l10.5-10.5z"/><path fill="#00ad6c" d="M42.4 31.4h-21l10.5-10.5z"/><path fill="#00b69e" d="M21 22.3H0l10.5-10.5z"/><path fill="#88c557" d="M74.9 13.4h-21L64.4 2.9z"/><path fill="#f17481" d="M133.7 0h21l-10.5 10.5z"/><path fill="#24b9a8" d="M21 22.3L10.5 32.8 0 22.3z"/><path fill="#9bcf89" d="M65.6 82.9L55 93.4 44.5 82.9z"/><path fill="#c4db74" d="M91 96.1l10.5-10.5L112 96.1z"/><path fill="#dfe681" d="M91 96.1h21l-10.5 10.5z"/><path fill="#c588bb" d="M189.4 73.4l-10.5 10.5-10.5-10.5z"/><path fill="#75c7b1" d="M42.4 73.4L31.9 83.9 21.4 73.4z"/><path fill="#b9d76d" d="M84.4 73.4L73.9 83.9 63.4 73.4z"/><path fill="#cfdf6e" d="M94.9 83.9h-21l10.5-10.5z"/><path fill="#e7c667" d="M84.4 73.4l10.5 10.5 10.5-10.5z"/><path fill="#fcbb66" d="M147.4 73.4l-10.5 10.5-10.5-10.5z"/><path fill="#ffc96c" d="M136.9 83.9h-21l10.5-10.5z"/><path fill="#fcbd5e" d="M126.4 73.4l-10.5 10.5-10.5-10.5z"/><path fill="#f394b1" d="M168.4 73.4l-10.5 10.5-10.5-10.5z"/><path fill="#b489be" d="M199.9 83.9h-21l10.5-10.5z"/><path fill="#9a82bc" d="M210.4 73.4l-10.5 10.5-10.5-10.5z"/><path fill="#4ebea6" d="M10.9 62.9h21L21.4 73.4z"/><path fill="#a5cf5d" d="M94.9 62.9L84.4 73.4 73.9 62.9z"/><path fill="#61c2a7" d="M42.4 73.4h-21l10.5-10.5z"/><path fill="#65c194" d="M52.9 62.9L42.4 73.4 31.9 62.9z"/><path fill="#80c78f" d="M63.4 73.4h-21l10.5-10.5z"/><path fill="#8dc86e" d="M73.9 62.9L63.4 73.4 52.9 62.9z"/><path fill="#9fcd5f" d="M84.4 73.4h-21l10.5-10.5z"/><path fill="#faaa47" d="M115.9 62.9l-10.5 10.5-10.5-10.5z"/><path fill="#dfb452" d="M84.4 73.4h21L94.9 62.9z"/><path fill="#f9a343" d="M136.9 62.9l-10.5 10.5-10.5-10.5z"/><path fill="#f9ab5a" d="M147.4 73.4h-21l10.5-10.5z"/><path fill="#fab044" d="M126.4 73.4h-21l10.5-10.5z"/><path fill="#f6966b" d="M157.9 62.9l-10.5 10.5-10.5-10.5z"/><path fill="#f38ca8" d="M168.4 73.4h-21l10.5-10.5z"/><path fill="#c074af" d="M178.9 62.9l-10.5 10.5-10.5-10.5z"/><path fill="#c07bb3" d="M189.4 73.4h-21l10.5-10.5z"/><path fill="#9672b1" d="M199.9 62.9l-10.5 10.5-10.5-10.5z"/><path fill="#927db8" d="M210.4 73.4h-21l10.5-10.5z"/><path fill="#8a78b6" d="M220.9 62.9l-10.5 10.5-10.5-10.5z"/><path fill="#3dbb9f" d="M31.9 62.9h-21l10.5-10.5z"/><path fill="#f69138" d="M147.4 52.4l-10.5 10.5-10.5-10.5z"/><path fill="#f69138" d="M126.4 52.4l-10.5 10.5-10.5-10.5z"/><path fill="#91c85c" d="M94.9 62.9h-21l10.5-10.5z"/><path fill="#44ba8c" d="M52.9 62.9h-21l10.5-10.5z"/><path fill="#41bb9b" d="M42.4 52.4L31.9 62.9 21.4 52.4z"/><path fill="#77c05b" d="M73.9 62.9h-21l10.5-10.5z"/><path fill="#6cbf66" d="M84.4 52.4L73.9 62.9 63.4 52.4z"/><path fill="#79c15f" d="M63.4 52.4L52.9 62.9 42.4 52.4z"/><path fill="none" d="M84.4 52.4l10.5 10.5 10.5-10.5z"/><path fill="#f7983b" d="M115.9 62.9h-21l10.5-10.5z"/><path fill="#f48768" d="M157.9 62.9h-21l10.5-10.5z"/><path fill="#f89c44" d="M136.9 62.9h-21l10.5-10.5z"/><path fill="#b56cab" d="M178.9 62.9h-21l10.5-10.5z"/><path fill="#9d69ab" d="M168.4 52.4l10.5 10.5 10.5-10.5z"/><path fill="#d770ab" d="M168.4 52.4l-10.5 10.5-10.5-10.5z"/><path fill="#8d66ab" d="M199.9 62.9h-21l10.5-10.5z"/><path fill="#8165ab" d="M210.4 52.4l-10.5 10.5-10.5-10.5z"/><path fill="#836eb0" d="M220.9 62.9h-21l10.5-10.5z"/><path fill="#a58bc0" d="M222.4 47.3l.1.1 10.3 10.3 10.4-10.3.1-.1-.1-.1-10.4-10.3-10.3 10.3z"/><path fill="#957bb7" d="M222.4 47.4l10.5-10.5 10.5 10.5z"/><path fill="#f37932" d="M136.9 41.9l-10.5 10.5-10.5-10.5z"/><path fill="#6cbe64" d="M94.9 41.9L84.4 52.4 73.9 41.9z"/><path fill="#b4b457" d="M105.4 52.4L94.9 62.9 84.4 52.4z"/><path fill="#34b780" d="M52.9 41.9L42.4 52.4 31.9 41.9z"/><path fill="#00b593" d="M31.9 41.9L21.4 52.4 10.9 41.9z"/><path fill="#50b85e" d="M73.9 41.9L63.4 52.4 52.9 41.9z"/><path fill="#f58745" d="M115.9 41.9l-10.5 10.5-10.5-10.5z"/><path fill="#f06673" d="M157.9 41.9l-10.5 10.5-10.5-10.5z"/><path fill="#af549f" d="M178.9 41.9l-10.5 10.5-10.5-10.5z"/><path fill="#8856a2" d="M199.9 41.9l-10.5 10.5-10.5-10.5z"/><path fill="#f48139" d="M147.4 52.4h-21l10.5-10.5z"/><path fill="#f48139" d="M126.4 52.4h-21l10.5-10.5z"/><path fill="#00b590" d="M42.4 52.4h-21l10.5-10.5z"/><path fill="#5cbb61" d="M63.4 52.4h-21l10.5-10.5z"/><path fill="#60bc60" d="M84.4 52.4h-21l10.5-10.5z"/><path fill="#cb9c49" d="M84.4 52.4h21L94.9 41.9z"/><path fill="#9a58a2" d="M168.4 52.4h21l-10.5-10.5z"/><path fill="#c966a7" d="M168.4 52.4h-21l10.5-10.5z"/><path fill="#7f5da7" d="M210.4 52.4h-21l10.5-10.5z"/><path fill="#7a5ca6" d="M220.9 41.9l-10.5 10.5-10.5-10.5z"/><path fill="#f27237" d="M136.9 41.9h-21l10.5-10.5z"/><path fill="#00b273" d="M52.9 41.9h-21l10.5-10.5z"/><path fill="#5dbb5c" d="M94.9 41.9h-21l10.5-10.5z"/><path fill="#a84e9d" d="M178.9 41.9h-21l10.5-10.5z"/><path fill="#02b37c" d="M42.4 31.4L31.9 41.9 21.4 31.4z"/><path fill="#00ae89" d="M31.9 41.9h-21l10.5-10.5z"/><path fill="#28b467" d="M73.9 41.9h-21l10.5-10.5z"/><path fill="#05b268" d="M63.4 31.4L52.9 41.9 42.4 31.4z"/><path fill="#4cb863" d="M84.4 31.4L73.9 41.9 63.4 31.4z"/><path fill="#f37b41" d="M115.9 41.9h-21l10.5-10.5z"/><path fill="#f16937" d="M126.4 31.4l-10.5 10.5-10.5-10.5z"/><path fill="#f06360" d="M147.4 31.4l-10.5 10.5-10.5-10.5z"/><path fill="#e1566d" d="M157.9 41.9h-21l10.5-10.5z"/><path fill="#ca5483" d="M168.4 31.4l-10.5 10.5-10.5-10.5z"/><path fill="#86479b" d="M189.4 31.4l-10.5 10.5-10.5-10.5z"/><path fill="#75c064" d="M105.4 31.4L94.9 41.9 84.4 31.4z"/><path fill="#824f9f" d="M199.9 41.9h-21l10.5-10.5z"/><path fill="#734c9d" d="M210.4 31.4l-10.5 10.5-10.5-10.5z"/><path fill="#7354a2" d="M220.9 41.9h-21l10.5-10.5z"/></g><g fill="#05a357"><path d="M118.5 95.5c0-2.3 1.6-3.9 4-3.9 2.6 0 3.8 1.7 3.8 3.9 0 2.4-1.4 3.9-4 3.9-2.5 0-3.8-1.5-3.8-3.9m6.4.1c0-1.6-.8-2.7-2.4-2.7-1.7 0-2.5 1.2-2.5 2.7 0 1.5.7 2.8 2.4 2.8 1.8-.1 2.5-1.3 2.5-2.8"/><path d="M129.2 93h-2.4v-1.2h6.3V93h-2.4v6.3h-1.5z"/><path d="M136.4 95.6c0-2.4 1.5-3.9 4-3.9 1.1 0 1.8.2 2.3.5l-.4 1.1c-.6-.2-1-.3-1.8-.3-1.4 0-2.6.8-2.6 2.6s1.2 2.7 2.8 2.7c.7 0 1.2-.1 1.8-.2l.3 1.1c-.6.2-1.3.4-2.3.4-2.7-.2-4.1-1.6-4.1-4"/><path d="M144.1 91.8h5V93h-3.5v5.2h.9c1.2 0 1.7-.5 1.7-1.2 0-.8-.6-1.2-1.8-1.2h-.7v-1.1h.7c2.1 0 3.3.8 3.3 2.4 0 1.5-1.1 2.3-3.1 2.3h-2.4v-7.6z"/><path d="M150.8 91.8h4.6V93h-3.2v2h3v1.1h-3v2.1h3.5v1.1h-4.9z"/><path d="M157 91.8h2.7c1.6 0 2.7.9 2.7 2.6 0 1.4-1.1 2.6-3.3 2.6h-.6v-1.1h.7c1.1 0 1.7-.6 1.7-1.4 0-.9-.4-1.4-1.4-1.4h-1.1v6.4H157v-7.7z"/><path d="M163.3 91.8h5V93h-3.5v5.2h.9c1.2 0 1.7-.5 1.7-1.2 0-.8-.6-1.2-1.7-1.2h-.7v-1.1h.7c2.1 0 3.3.8 3.3 2.4 0 1.5-1.1 2.3-3.1 2.3h-2.4v-7.6z"/><path d="M172.3 91.8h1.9l2.6 7.5h-1.5l-.8-2.4h-2.7l-.9 2.4h-1.5l2.9-7.5zm1.8 4l-.9-3.1-1 3.1h1.9z"/><path d="M177.6 91.8h1.4V95h3.6v-3.2h1.4v7.5h-1.4v-3.2H179v3.2h-1.4z"/><path d="M185.5 91.8h1.4v3.4l2.9-3.4h1.8l-3.1 3.5 3.3 4h-1.9l-3-4v4h-1.4z"/><path d="M194.7 91.8h1.9l2.6 7.5h-1.5l-.8-2.4h-2.7l-.9 2.4h-1.5l2.9-7.5zm1.8 4l-.9-3.1-1 3.1h1.9z"/></g><g fill="#fff"><path d="M81.3 43.9c0-.7-.3-1.2-.8-1.4-1.3-.3-4-.9-7.6-1H71c-3.6.1-6.3.7-7.6 1-.5.1-.8.6-.8 1.4V63h5.9V46.3c1.1-.4 2.7-.5 3.4-.5.7 0 2.4 0 3.5.4v16.7h5.9v-19z"/><path d="M103.1 46.9c0-1.2-.1-2.8-2.8-4.2-2-1-5.1-1.2-7-1.1-2.7.1-5.6.9-7 1.4-.4.1-.8.3-.8.3l.9 3.8s.3-.1.5-.1c.7-.2 2.5-.6 3.7-.8 1.3-.2 3.4-.4 4.7-.2.9.1 1.8.5 1.8 1.5v2c-2.5 0-3.8 0-5 .1-1.9.2-3.5.5-4.7 1.1-1.7.9-3 2.3-3.1 5.3-.1 2.7.9 4.4 2.8 5.6 1.6.9 4.2 1.4 6.6 1.5 2.4.1 4.3-.1 6.4-.4 1.7-.2 2.9-.6 2.9-.6V46.9zm-5.9 11.8s-1.1.3-3.3.2c-1.8-.1-4-.3-3.8-2.8.1-1.4 1-2 2-2.2.8-.2 2.7-.3 5.2-.1v4.9z"/><path d="M182.6 41.7c-.6-.1-1.4-.1-2.1-.1-.6 0-1.4 0-2.1.1-2.7.4-7.8 1.1-7.8 8.6v4.2c0 7.5 5.1 8.2 7.8 8.6.6.1 1.4.1 2.1.1.6 0 1.4 0 2.1-.1 2.7-.4 7.8-1.1 7.8-8.6v-4.2c-.1-7.5-5.2-8.2-7.8-8.6m1.7 10.7v2.5c0 1.7-.2 4.2-3.1 4.3h-1.6c-2.8-.1-3.1-2.6-3.1-4.3v-5c0-1.8.2-4.2 3.1-4.3h1.6c2.8.2 3.1 2.6 3.1 4.3v2.5z"/><path d="M160.2 41.7c-.6-.1-1.4-.1-2.1-.1-.6 0-1.4 0-2.1.1-.6.1-1.3.2-2.2.4.1-2 .4-3 2.2-4 2.6-1.4 7.9-1.7 10.8-1.9l-.1-4.8c-6.8.6-11.8 1.2-14.8 3.2-2.2 1.4-3.7 4-3.7 9v10.9c0 7.5 5.1 8.2 7.8 8.6.6.1 1.4.1 2.1.1.6 0 1.4 0 2.1-.1 2.7-.4 7.8-1.1 7.8-8.6v-4.2c0-7.5-5.1-8.2-7.8-8.6m1.8 10.7v2.5c0 1.7-.2 4.2-3.1 4.3h-1.6c-2.8-.1-3.1-2.6-3.1-4.3v-5c0-1.8.2-4.2 3.1-4.3h1.6c2.8.2 3.1 2.6 3.1 4.3v2.5z"/><path d="M144.4 42.3c-.2-.2-.4-.4-1.1-.4h-2.8c-.3 0-1-.1-1.4.2-.3.2-.7.9-.9 1.2-.8 1.4-1.5 2.7-2.1 3.7-.6 1-1.1 1.9-1.6 2.7-.1.3-.3.5-.4.8s-.3.5-.5.9-1 1.6-1.5 2.5h-.1v-12h-5.9v19.3c0 .6 0 1 .3 1.3.2.2.4.4 1.1.4H130.3c.7 0 1.2 0 1.5-.2.3-.2.5-.6.9-1.2.6-1 2.8-4.8 3.4-5.8.5-.9 1.1-1.8 1.6-2.7.5-.9.6-1.1 1.2-2h.1v11.9h5.9V44.1c-.2-.9-.1-1.4-.5-1.8"/><path d="M121.7 58.3c-.8.2-2.9.7-4.8.6-1.9 0-4.5-.6-4.9-3.5-.2-1.1-.2-2.1-.2-2.9v-.2c0-.8 0-1.8.2-2.9.4-2.5 3-3.4 4.9-3.5 1.9 0 4 .4 4.8.6.2.1.6.2.6.2l.8-3.8s-2.4-.8-4.3-1.1c-2.2-.3-5.2-.3-7.8.6-4.5 1.7-5.2 6.3-5.2 9.9 0 3.6.4 8 5.1 9.9 2.4 1 5.6.9 7.8.6 1.9-.2 4.3-1.1 4.3-1.1l-.8-3.8c.1.2-.3.3-.5.4"/><path d="M58.3 58.3c-.8.2-2.9.7-4.8.6-1.9 0-4.5-.9-4.9-3.5-.1-1.1-.2-2.1-.2-2.9v-.2c0-.8 0-1.8.2-2.9.5-2.6 3-3.4 4.9-3.5 1.9 0 4 .4 4.8.6.2.1.6.2.6.2l.7-3.8s-2.4-.8-4.2-1.1c-2.2-.3-5.2-.3-7.8.6-4.5 1.7-5.2 6.3-5.2 9.9 0 3.6.4 8 5.1 9.9 2.4 1 5.6.9 7.8.6 1.9-.2 4.2-1.1 4.2-1.1l-.8-3.8c.1.2-.2.3-.4.4"/></g></svg><view id="status-fail" viewBox="0 157 68 68"/><svg width="68" height="68" viewBox="0 0 68 68" y="157" xmlns="http://www.w3.org/2000/svg"><g fill="none" fill-rule="evenodd"><circle fill="#DC7575" cx="34" cy="34" r="34"/><g fill="#FFF"><path d="M46.205 23.743a1.02 1.02 0 00-1.444-1.444L22.3 44.761a1.02 1.02 0 001.444 1.444l22.462-22.462z"/><path d="M23.743 22.299a1.02 1.02 0 00-1.444 1.444l22.462 22.462a1.02 1.02 0 001.444-1.444L23.743 22.3z"/></g></g></svg><view id="status-fail-circle" viewBox="192 107 20 20"/><svg width="20" height="20" viewBox="0 0 20 20" x="192" y="107" xmlns="http://www.w3.org/2000/svg"><circle cx="10" cy="10" r="10" fill="#DC7575" fill-rule="evenodd"/></svg><view id="status-success" viewBox="68 157 68 68"/><svg width="68" height="68" viewBox="0 0 68 68" x="68" y="157" xmlns="http://www.w3.org/2000/svg"><title>Group</title><g fill="none" fill-rule="evenodd"><circle fill="#35C866" cx="34" cy="34" r="34"/><path stroke="#FFF" stroke-width="5" stroke-linecap="round" stroke-linejoin="round" d="M21.575 33.02l8.056 9.513L46 25.299"/></g></svg><view id="status-success-circle" viewBox="212 107 20 20"/><svg width="20" height="20" viewBox="0 0 20 20" x="212" y="107" xmlns="http://www.w3.org/2000/svg"><circle cx="10" cy="10" r="10" fill="#35C866" fill-rule="evenodd"/></svg><view id="trash" viewBox="267 183 24 24"/><svg viewBox="0 0 24 24" preserveAspectRatio="xMaxYMid" width="24" height="24" x="267" y="183" xmlns="http://www.w3.org/2000/svg"><g fill="#c3c3c3"><path d="M19.4 4.1h-2.7v-1c0-1.1-.9-2.1-2.1-2.1H9.9c-1.2.1-2.1 1-2.1 2.1v1H5.1c-.9 0-1.6.7-1.6 1.6v2.6c0 .8.6 1.4 1.3 1.6v9.8c0 2 1.6 3.6 3.6 3.6h7.8c2 0 3.6-1.6 3.6-3.6V9.9c.6-.1 1.2-.8 1.2-1.6V5.7c0-.9-.7-1.6-1.6-1.6zm-9.7-1l.1-.1h4.8c.1 0 .1.1.1.1v1h-5v-1zM5.4 6H19v2H5.4V6zm10.7 15.3H8.4c-.9 0-1.6-.7-1.6-1.6V10h11v9.8c-.1.8-.8 1.5-1.7 1.5z"/><path d="M10.1 11.7c-.6 0-1 .4-1 1v6c0 .6.4 1 1 1s1-.4 1-1v-6c0-.6-.4-1-1-1z"/><path d="M14.3 11.7c-.6 0-1 .4-1 1v6c0 .6.4 1 1 1s1-.4 1-1v-6c0-.6-.4-1-1-1z"/></g></svg><view id="two-cards" viewBox="136 157 59 52"/><svg width="59" height="52" viewBox="0 0 59 52" x="136" y="157" xmlns="http://www.w3.org/2000/svg"><g fill-rule="nonzero" stroke-width="2" fill="none"><g transform="rotate(-16 45.264 -51.686)" stroke="#19AA57"><rect fill="#FFF" x="1" y="1" width="36" height="23" rx="3"/><path d="M2.5 8.208H36" stroke-linecap="round"/></g><g transform="rotate(-16 101.302 14.237)"><rect stroke="#19AA57" fill="#19AA57" x="1" y="1" width="36" height="23" rx="3"/><path d="M5.5 18.25h21" stroke="#FFF" stroke-linecap="round"/><path d="M5.5 6.25h6" stroke="#FFF" stroke-linecap="round"/></g></g></svg></svg>