<?xml version="1.0" standalone="no"?>
<!DOCTYPE svg PUBLIC "-//W3C//DTD SVG 20010904//EN"
 "http://www.w3.org/TR/2001/REC-SVG-20010904/DTD/svg10.dtd">
<svg version="1.0" xmlns="http://www.w3.org/2000/svg"
 width="439.000000pt" height="439.000000pt" viewBox="0 0 439.000000 439.000000"
 preserveAspectRatio="xMidYMid meet">
<metadata>
Created by potrace 1.11, written by Peter Selinger 2001-2013
</metadata>
<g transform="translate(0.000000,439.000000) scale(0.100000,-0.100000)"
fill="#000000" stroke="none">
<path d="M4315 4094 c-11 -4 -322 -47 -500 -69 -154 -19 -486 -64 -512 -70
-21 -5 -23 -10 -22 -73 2 -56 3 -60 8 -27 6 37 9 40 41 43 19 2 89 12 155 23
66 10 147 21 180 24 33 3 103 11 155 19 52 7 97 11 100 9 3 -3 7 -53 8 -112
l4 -108 -99 -12 c-166 -20 -183 -23 -183 -33 0 -17 22 -52 63 -101 32 -39 38
-51 26 -58 -9 -5 -10 -9 -2 -9 6 0 18 7 27 15 19 20 21 19 23 -6 1 -12 10 -30
20 -42 18 -20 18 -20 -9 -3 -22 14 -38 16 -78 11 -27 -4 -50 -11 -50 -16 0 -5
7 -9 15 -9 8 0 15 -4 15 -10 0 -5 -7 -10 -15 -10 -9 0 -15 -10 -15 -26 0 -23
3 -25 28 -20 26 7 26 7 6 -8 -17 -13 -21 -25 -20 -68 1 -47 4 -53 24 -56 21
-3 22 -1 16 40 -3 24 -7 49 -10 56 -2 6 1 12 6 12 5 0 10 -12 12 -27 2 -19 10
-29 28 -34 24 -7 24 -7 2 -8 -24 -1 -28 -28 -7 -43 6 -5 4 -8 -5 -9 -67 -4
-71 -7 -63 -37 5 -21 10 -22 62 -17 138 14 603 55 621 55 13 0 20 7 20 19 0
17 -7 18 -87 15 -49 -3 -113 -10 -145 -16 -31 -5 -61 -7 -67 -4 -6 4 -11 32
-11 62 0 42 3 54 16 54 8 0 12 5 9 11 -4 5 0 18 9 27 10 12 12 22 6 32 -5 8
-10 32 -10 53 0 34 -2 38 -20 32 -16 -5 -20 -2 -20 19 0 43 10 56 45 56 18 0
35 5 37 11 2 6 30 12 63 14 33 2 68 6 77 10 9 4 21 4 27 1 5 -4 12 -2 16 4 3
5 17 10 31 10 24 0 24 0 24 105 0 98 -1 105 -20 105 -14 0 -20 7 -20 21 0 12
8 23 20 26 11 3 20 13 20 22 0 15 -8 16 -65 10 -71 -7 -107 -23 -40 -17 l40 3
3 -52 c2 -29 7 -53 13 -53 5 0 9 -11 9 -25 0 -21 -5 -25 -32 -26 -18 0 -46 -3
-62 -5 -26 -5 -28 -3 -24 20 3 15 1 26 -3 26 -14 0 -10 94 4 109 13 13 13 13
-117 -9 -82 -14 -106 -13 -106 5 0 16 18 22 95 29 28 3 78 9 113 14 42 6 62 5
62 -2 0 -7 3 -7 8 0 4 6 28 14 55 18 47 7 47 7 47 47 0 38 -1 39 -32 38 -18 0
-37 -2 -43 -5z m-107 -181 c-2 -12 -18 -21 -46 -27 -23 -6 -42 -13 -42 -18 0
-4 -20 -5 -45 -1 -36 4 -50 2 -65 -12 -25 -22 -45 -8 -36 23 6 16 19 22 61 27
29 4 58 4 64 0 6 -3 11 -2 11 4 0 5 17 12 38 14 20 2 43 4 50 5 8 1 12 -5 10
-15z m7 -103 c-6 -9 -9 -9 -16 1 -10 17 0 34 13 21 6 -6 7 -16 3 -22z m-110
-317 c4 -17 2 -23 -8 -23 -18 0 -26 18 -19 43 5 21 17 12 27 -20z m-371 -14
c-8 -14 -24 -10 -24 6 0 9 6 12 15 9 8 -4 12 -10 9 -15z m112 -6 c-9 -10 -98
-43 -111 -42 -14 1 86 48 104 48 8 1 11 -2 7 -6z m-25 -75 c17 -63 19 -83 10
-72 -8 10 -31 84 -31 103 0 24 10 9 21 -31z"/>
<path d="M2545 3940 c-27 -28 -53 -41 -40 -20 3 6 2 10 -3 10 -5 0 -26 -22
-48 -49 -41 -51 -72 -76 -82 -67 -3 3 13 24 36 46 45 42 53 57 23 41 -10 -6
-21 -8 -24 -5 -3 3 -21 -6 -40 -20 -37 -28 -53 -33 -41 -13 6 9 5 9 -7 1 -8
-7 -26 -11 -41 -9 -15 2 -26 0 -25 -3 3 -13 -61 -72 -65 -60 -4 12 -13 7 -61
-36 -15 -14 -22 -16 -25 -7 -3 9 -9 8 -23 -5 -18 -16 -19 -16 -19 4 0 34 -38
19 -53 -20 -3 -10 -11 -18 -17 -18 -6 0 -8 6 -5 13 4 6 -1 3 -9 -7 -12 -15
-16 -16 -16 -5 -1 8 -10 -3 -20 -23 -20 -36 -80 -78 -80 -55 0 6 -7 1 -16 -11
-8 -12 -19 -20 -24 -17 -5 3 -12 -4 -15 -16 -4 -12 -13 -18 -20 -15 -15 5 -65
-54 -65 -78 0 -9 -7 -16 -15 -16 -9 0 -33 -18 -54 -39 -22 -22 -42 -37 -45
-34 -3 4 -6 -1 -6 -10 0 -8 -4 -17 -9 -19 -4 -1 -12 -14 -16 -27 -5 -18 -4
-22 6 -16 8 4 -3 -9 -23 -29 -21 -20 -38 -43 -38 -51 0 -8 -7 -15 -15 -15 -8
0 -15 -6 -15 -12 0 -7 -7 -26 -15 -42 -13 -25 -13 -28 1 -22 10 4 14 2 11 -6
-2 -7 -9 -12 -14 -11 -5 1 -9 -14 -10 -33 0 -22 -9 -44 -23 -59 -12 -13 -19
-28 -16 -34 6 -9 -11 -59 -24 -71 -19 -18 -43 -52 -32 -46 6 4 12 2 12 -3 0
-6 -4 -11 -9 -11 -6 0 -9 -12 -7 -27 1 -16 -2 -34 -8 -41 -5 -7 -10 -25 -11
-40 -2 -15 -10 -44 -19 -64 -19 -44 -21 -83 -4 -72 8 5 9 2 3 -12 -4 -10 -7
-31 -6 -46 1 -16 -4 -28 -10 -28 -8 0 -10 -17 -6 -55 3 -30 3 -55 0 -55 -4 0
-18 13 -32 30 -25 28 -46 35 -102 32 -25 -2 -27 -6 -39 -91 -7 -49 -10 -113
-8 -141 l5 -51 -46 3 c-40 3 -46 6 -46 25 0 30 -19 34 -23 6 -2 -12 -9 -26
-15 -31 -11 -9 -155 -21 -477 -38 -63 -4 -122 -11 -130 -15 -9 -6 2 -7 28 -3
28 5 42 3 42 -5 0 -7 -24 -12 -62 -13 -48 -1 -53 -2 -23 -6 37 -3 331 10 520
24 59 5 77 4 70 -5 -7 -7 -110 -17 -265 -27 -140 -8 -257 -18 -260 -21 -5 -6
118 -1 388 13 72 4 122 3 121 -2 -4 -25 3 -27 21 -4 l20 25 0 -22 c0 -13 4
-23 10 -23 23 0 32 -41 17 -85 -9 -24 -13 -46 -9 -49 12 -13 22 -5 22 18 0 35
15 40 29 9 17 -37 25 -21 11 22 -15 44 -5 125 15 125 7 0 20 2 27 5 11 5 14
-12 14 -82 -1 -162 51 -274 119 -261 20 4 24 2 21 -11 -3 -9 -6 -61 -7 -116
-1 -55 -5 -104 -9 -110 -4 -5 -7 -17 -8 -25 0 -23 -57 -240 -80 -306 -12 -33
-30 -90 -42 -129 -26 -83 -60 -132 -106 -151 -18 -8 -44 -24 -57 -36 -75 -72
-132 -119 -147 -121 -9 -2 -25 -11 -34 -20 -10 -9 -21 -15 -26 -12 -5 3 -10 2
-12 -2 -6 -14 -112 -60 -168 -73 -30 -7 -58 -17 -61 -22 -4 -6 -19 -11 -35
-13 -33 -3 -63 -13 -82 -29 -8 -5 -23 -11 -35 -13 -11 -2 -25 -7 -31 -12 -6
-4 -32 -14 -59 -21 -26 -7 -50 -17 -53 -21 -3 -5 -15 -9 -26 -9 -12 0 -18 -3
-15 -7 4 -3 1 -13 -5 -21 -23 -27 -13 -47 62 -121 41 -41 74 -78 73 -83 -2 -4
1 -8 5 -8 5 0 9 -7 9 -15 0 -9 -6 -14 -14 -11 -7 3 -13 -1 -13 -9 0 -18 -54
-29 -78 -16 -15 8 -23 7 -31 -3 -6 -7 -9 -15 -6 -18 3 -2 -18 -10 -46 -17 -28
-7 -53 -19 -55 -26 -3 -7 -21 -16 -40 -19 l-34 -7 0 -89 0 -90 164 0 c101 0
167 4 171 10 4 6 10 8 15 5 4 -3 21 7 37 23 25 23 40 27 94 30 35 1 67 6 72
11 5 5 15 7 23 4 13 -5 13 25 -1 47 -3 6 -1 10 4 10 6 0 11 -4 11 -9 0 -5 8
-12 17 -16 15 -5 16 -4 6 6 -18 18 -16 39 2 39 8 0 15 -5 15 -11 0 -7 10 -9
24 -7 13 3 32 -2 42 -10 17 -13 17 -14 2 -9 -10 4 -18 3 -18 -1 1 -13 50 -43
60 -37 6 3 7 -1 4 -10 -5 -13 -2 -14 20 -5 20 7 26 6 26 -4 0 -18 -38 -33 -83
-31 -29 1 -37 -1 -32 -12 3 -8 5 -17 5 -19 0 -2 340 -4 755 -4 l755 0 -25 51
-26 51 25 72 c14 40 26 81 26 91 0 10 18 55 40 101 22 46 40 89 40 96 0 8 11
30 25 50 14 20 25 46 25 58 0 11 9 37 20 57 11 21 20 45 20 54 0 9 11 24 25
33 14 9 25 22 25 29 0 7 28 37 62 67 34 30 72 65 84 78 19 20 32 22 125 24
l104 2 -97 3 c-54 2 -98 6 -98 8 0 2 27 32 60 65 33 33 60 63 60 65 0 2 28 55
63 117 76 137 91 172 84 198 -3 11 -1 20 5 20 5 0 6 6 2 12 -10 16 -13 48 -4
43 14 -9 56 114 65 192 2 18 6 36 9 41 3 5 8 35 11 67 5 44 2 67 -11 97 -9 21
-22 38 -27 38 -6 0 -8 3 -4 6 3 4 -1 20 -9 36 -8 16 -12 38 -9 48 3 11 1 29
-5 40 -11 20 -9 26 35 97 1 2 15 -3 32 -9 42 -16 60 0 68 60 3 26 13 77 21
113 17 75 9 110 -28 130 -21 11 -36 23 -87 69 -9 8 -21 15 -26 15 -34 0 -95
83 -95 128 0 36 -10 57 -26 57 -8 0 -14 5 -14 10 0 6 -7 10 -15 10 -20 0 -85
69 -85 90 0 10 -6 23 -14 29 -18 15 -15 37 10 58 20 19 74 25 74 9 0 -5 3 -7
6 -3 3 3 24 -1 45 -8 30 -11 46 -12 67 -3 15 6 22 12 15 15 -7 2 -10 10 -7 16
2 7 -24 41 -57 77 -34 36 -68 75 -76 88 -8 12 -21 22 -28 22 -7 0 -16 7 -19
16 -8 20 -8 24 2 23 21 -4 23 3 8 19 -11 13 -14 28 -10 50 6 29 10 31 60 38
43 5 66 2 114 -16 33 -12 60 -26 60 -31 0 -5 10 -9 23 -9 25 -1 57 -22 57 -38
0 -5 6 -12 14 -15 8 -3 22 -21 30 -39 9 -18 25 -44 36 -58 16 -21 20 -22 20
-7 0 10 -7 29 -16 42 -9 13 -14 30 -11 37 2 7 -5 24 -17 37 l-21 23 24 -7 c20
-6 23 -4 17 10 -5 14 -2 17 19 13 14 -3 25 -1 25 3 0 5 -4 9 -10 9 -5 0 -10 7
-10 15 0 8 -6 15 -13 15 -8 0 -14 7 -14 15 0 9 6 14 14 11 8 -3 13 2 13 15 0
16 -4 19 -22 14 -18 -5 -20 -4 -8 4 13 10 13 11 0 11 -12 0 -13 2 -1 9 11 7
11 9 0 14 -10 4 -10 6 -1 6 6 1 12 10 12 21 0 12 7 32 16 45 9 14 12 25 6 25
-6 0 -14 -4 -17 -10 -3 -5 -14 -10 -23 -10 -10 0 -13 3 -6 8 18 12 23 40 10
51 -7 6 -17 7 -21 3 -5 -4 -5 1 -1 12 5 14 2 17 -9 12 -10 -4 -15 1 -15 14 0
11 -4 28 -9 38 -5 9 -14 29 -22 45 -7 15 -20 27 -31 27 -15 0 -18 5 -13 20 3
11 2 20 -3 20 -5 0 -15 18 -22 40 -13 41 -24 50 -33 28 -5 -13 -11 16 -8 39 2
13 -24 8 -46 -10 -9 -6 -13 -5 -13 3 0 9 -7 8 -25 -4 -36 -24 -43 -20 -50 24
-4 22 -11 38 -16 34 -5 -3 -9 2 -9 11 0 9 -4 14 -9 11 -4 -3 -6 5 -4 17 4 27
-8 47 -31 51 -10 1 -21 8 -25 15 -6 10 -12 9 -25 -4 -9 -9 -16 -21 -16 -26 0
-5 -5 -9 -11 -9 -7 0 -8 12 -4 33 l6 32 -19 -22 -20 -23 2 25 c0 14 5 25 10
25 5 0 6 3 3 7 -4 3 -2 12 5 20 22 28 1 22 -27 -7z m-945 -623 c0 -2 -10 -12
-22 -23 l-23 -19 19 23 c18 21 26 27 26 19z m278 -32 c-1 -14 -6 -25 -9 -25
-4 0 -14 -6 -21 -12 -26 -25 -106 -78 -117 -78 -6 0 -11 -4 -11 -10 0 -5 -5
-10 -11 -10 -5 0 -8 4 -5 9 9 13 -19 32 -37 25 -12 -4 -15 -1 -12 16 9 45 16
57 43 70 15 7 39 19 54 27 15 7 38 11 52 7 13 -3 33 -1 43 4 23 14 33 6 31
-23z m-174 -602 c-10 -7 -23 -13 -29 -13 -21 0 -92 -80 -124 -140 -18 -33 -36
-60 -42 -60 -5 0 -8 -6 -6 -12 1 -8 -11 -14 -30 -16 -18 -2 -34 -7 -34 -13 -1
-5 -2 -12 -4 -16 -15 -56 -20 -70 -32 -81 -7 -8 -11 -17 -8 -22 2 -4 -8 -21
-24 -37 -16 -17 -34 -39 -40 -49 -10 -16 -11 -14 -6 16 9 54 39 150 47 150 5
0 8 7 8 14 0 19 72 116 85 116 12 0 81 72 113 118 13 17 27 32 32 32 5 0 26
11 46 25 30 20 40 23 51 13 13 -10 12 -14 -3 -25z m-579 -473 c-3 -5 -18 -10
-33 -10 -21 0 -24 2 -12 10 20 13 53 13 45 0z m-160 -10 c-11 -5 -51 -8 -90
-8 l-70 2 70 6 c39 4 79 7 90 8 l20 1 -20 -9z m1440 -59 c4 -30 13 -52 21 -55
9 -3 13 -10 10 -14 -3 -5 1 -20 9 -35 8 -15 11 -27 8 -27 -3 0 -1 -6 5 -12 5
-7 10 -25 10 -40 0 -14 16 -67 37 -117 20 -49 35 -100 33 -113 -3 -19 -8 -14
-28 29 -13 28 -28 49 -35 47 -12 -5 -75 59 -75 76 0 5 -4 10 -10 10 -5 0 -20
12 -33 26 -17 18 -23 34 -20 57 11 109 41 229 54 221 4 -2 10 -26 14 -53z
m-1710 38 c-49 -4 -121 -7 -160 -6 l-70 1 85 6 c47 3 119 6 160 7 l75 0 -90
-8z m435 2 c0 -12 -21 -19 -37 -13 -22 8 -14 22 12 22 14 0 25 -4 25 -9z
m1370 -710 c0 -6 -4 -12 -8 -15 -5 -3 -9 1 -9 9 0 8 4 15 9 15 4 0 8 -4 8 -9z"/>
<path d="M1467 2484 c-3 -3 -3 -13 0 -21 5 -12 7 -12 14 -1 15 23 4 40 -14 22z"/>
<path d="M4298 3853 c7 -3 16 -2 19 1 4 3 -2 6 -13 5 -11 0 -14 -3 -6 -6z"/>
<path d="M1110 3837 c0 -7 8 -13 18 -13 10 0 24 6 31 13 9 10 6 13 -19 13 -18
0 -30 -5 -30 -13z"/>
<path d="M2197 3823 c-4 -3 -7 -11 -7 -17 0 -6 5 -5 12 2 6 6 9 14 7 17 -3 3
-9 2 -12 -2z"/>
<path d="M3292 3738 c-2 -65 -5 -79 -21 -88 -16 -8 -18 -15 -11 -39 4 -15 4
-35 -1 -42 -13 -20 1 -81 23 -100 12 -11 18 -29 17 -55 l-1 -39 -7 35 c-8 40
-18 60 -30 60 -5 0 -8 -8 -7 -17 1 -14 -8 -19 -44 -21 -46 -3 -60 -14 -60 -44
0 -15 9 -18 52 -18 50 0 51 0 33 20 -17 19 -17 20 -1 20 9 0 15 -4 11 -9 -6
-11 35 -42 47 -35 4 3 8 0 8 -6 0 -7 7 -10 15 -7 8 4 17 2 20 -4 4 -5 -1 -12
-9 -15 -12 -5 -16 -23 -17 -78 -1 -39 -3 -64 -6 -55 -3 14 -11 15 -49 8 -54
-10 -87 -27 -79 -40 4 -5 2 -9 -4 -9 -16 0 -18 -34 -3 -52 13 -16 13 -18 -1
-18 -10 0 -17 -3 -17 -6 0 -10 28 -34 39 -34 6 0 11 -4 11 -10 0 -5 13 -7 30
-3 23 4 30 2 30 -10 0 -8 -6 -18 -12 -21 -7 -3 3 -3 22 0 19 4 36 7 37 8 1 1
3 35 4 76 1 41 7 80 14 86 6 6 43 14 83 17 61 5 72 4 72 -9 0 -9 7 -14 17 -12
9 2 16 8 14 13 -3 12 32 23 81 24 27 1 38 -4 41 -16 9 -40 19 18 12 72 l-7 56
-36 -6 c-28 -5 -33 -4 -22 4 8 6 26 11 38 11 23 0 24 2 18 58 -3 31 -5 60 -5
65 -1 4 -10 7 -21 7 -11 0 -20 5 -20 10 0 6 9 10 19 10 11 0 21 8 23 17 5 25
-8 203 -15 210 -4 3 -73 -2 -153 -12 -82 -10 -149 -14 -154 -9 -5 5 -11 36
-13 69 -3 57 -3 56 -5 -17z m328 -192 c0 -3 -4 -8 -10 -11 -5 -3 -10 -1 -10 4
0 6 5 11 10 11 6 0 10 -2 10 -4z m-145 -16 c-3 -5 -12 -10 -18 -10 -7 0 -6 4
3 10 19 12 23 12 15 0z m40 -1 c-4 -6 -1 -10 6 -8 8 1 25 1 38 0 20 -1 21 -3
11 -16 -14 -16 -55 -21 -45 -5 8 13 -28 0 -37 -14 -5 -7 -8 -4 -8 7 0 19 19
46 33 47 5 0 5 -5 2 -11z m109 -21 c-3 -4 -11 -5 -19 -1 -21 7 -19 12 4 10 11
0 18 -5 15 -9z m-224 -8 c0 -5 -9 -10 -21 -10 -11 0 -17 5 -14 10 3 6 13 10
21 10 8 0 14 -4 14 -10z m167 -216 c-3 -3 -12 -4 -19 -1 -8 3 -5 6 6 6 11 1
17 -2 13 -5z m1 -21 c-10 -2 -26 -2 -35 0 -10 3 -2 5 17 5 19 0 27 -2 18 -5z"/>
<path d="M3663 3587 c-3 -45 -1 -50 11 -34 16 21 38 23 30 2 -4 -8 -2 -15 4
-15 5 0 13 8 16 17 5 11 -4 28 -26 50 l-33 32 -2 -52z"/>
<path d="M4267 3493 c-9 -9 -9 -41 1 -46 4 -3 7 8 7 24 0 16 0 29 -1 29 0 0
-4 -3 -7 -7z"/>
<path d="M1416 3464 c-23 -22 -20 -32 9 -26 14 2 25 10 25 18 0 21 -17 25 -34
8z"/>
<path d="M4320 3445 c-10 -12 -10 -15 4 -15 9 0 16 7 16 15 0 8 -2 15 -4 15
-2 0 -9 -7 -16 -15z"/>
<path d="M1360 3415 c0 -8 9 -19 20 -25 23 -12 25 -3 6 23 -16 21 -26 22 -26
2z"/>
<path d="M1430 3425 c0 -2 9 -19 20 -37 21 -35 26 -26 10 16 -8 22 -30 37 -30
21z"/>
<path d="M988 3395 c-12 -12 5 -45 23 -45 25 0 24 0 59 -10 21 -6 30 -5 30 3
0 22 -15 34 -45 39 -16 3 -37 8 -46 12 -8 4 -18 4 -21 1z"/>
<path d="M1500 3390 c0 -5 5 -10 11 -10 5 0 7 5 4 10 -3 6 -8 10 -11 10 -2 0
-4 -4 -4 -10z"/>
<path d="M1254 3379 c-10 -17 12 -32 35 -24 18 5 19 8 7 21 -17 17 -32 18 -42
3z"/>
<path d="M1335 3380 c-3 -5 -1 -10 4 -10 6 0 11 5 11 10 0 6 -2 10 -4 10 -3 0
-8 -4 -11 -10z"/>
<path d="M740 3371 c0 -4 -16 -7 -35 -5 l-35 2 0 -49 c0 -35 4 -51 15 -55 8
-4 15 -15 15 -26 0 -10 -4 -16 -10 -13 -5 3 -10 1 -10 -4 0 -6 15 -17 33 -25
27 -12 29 -14 10 -15 -16 -1 -23 -7 -23 -21 0 -21 30 -26 78 -14 18 5 20 9 11
20 -10 12 -9 13 5 8 9 -3 16 -13 16 -21 0 -8 5 -11 10 -8 6 4 7 11 4 17 -4 6
1 8 12 5 51 -16 77 -19 108 -13 34 6 54 32 39 47 -17 17 -125 7 -150 -13 -9
-7 -13 -7 -13 1 0 6 -14 11 -32 11 -36 0 -35 6 2 12 29 4 52 22 49 40 -1 7 3
26 10 42 6 16 9 36 6 46 -8 25 -115 54 -115 31z m79 -113 c0 -13 -3 -17 -6
-10 -2 6 -11 12 -19 12 -8 0 -14 5 -14 10 0 6 9 10 20 10 14 0 20 -6 19 -22z"/>
<path d="M1174 3364 c3 -9 6 -18 6 -20 0 -3 5 -2 10 1 16 10 12 35 -6 35 -11
0 -14 -5 -10 -16z"/>
<path d="M1206 3355 c-4 -12 -1 -16 14 -13 24 3 28 22 7 26 -8 2 -17 -4 -21
-13z"/>
<path d="M577 3340 c-9 -13 -23 -19 -43 -17 -27 2 -29 0 -28 -30 1 -18 0 -33
-2 -33 -1 0 -11 16 -20 36 -9 19 -20 32 -23 27 -3 -5 -25 -15 -48 -22 -23 -8
-41 -17 -40 -20 2 -3 -7 -16 -20 -28 -20 -19 -24 -20 -37 -7 -22 22 -36 17
-37 -13 -1 -16 -3 -21 -6 -12 -2 9 -15 21 -29 28 -33 15 -37 14 -30 -5 5 -12
2 -15 -10 -10 -8 3 -18 6 -20 6 -3 0 -3 3 -1 8 3 4 -4 15 -13 25 -17 18 -19
18 -39 -4 -12 -13 -19 -29 -17 -35 3 -7 2 -15 -2 -18 -7 -7 -4 -80 4 -107 4
-15 70 -35 102 -30 6 1 12 -3 12 -9 0 -5 -12 -10 -27 -10 -55 0 -73 -10 -73
-41 0 -16 4 -29 8 -29 5 0 7 -13 4 -29 -3 -22 1 -32 17 -40 24 -13 28 -41 6
-41 -8 0 -15 -9 -15 -21 0 -41 33 -234 41 -239 18 -12 346 16 354 30 3 5 14 6
25 3 11 -3 20 0 20 6 0 6 10 10 23 9 12 -1 32 2 45 6 19 6 23 3 28 -23 7 -35
23 -42 25 -11 1 11 2 25 3 31 0 7 19 18 41 26 38 14 64 13 112 -2 17 -6 22 -2
26 17 4 21 4 20 6 -4 1 -25 5 -28 35 -28 56 0 65 7 59 46 -5 29 -3 33 11 28
12 -5 16 0 16 19 0 20 -4 25 -20 22 -17 -3 -20 2 -22 33 -3 58 -2 76 7 96 8
18 4 18 -81 12 -148 -11 -140 -6 -140 -81 0 -43 5 -66 13 -69 15 -6 18 -36 3
-36 -5 0 -11 -10 -11 -22 -1 -19 -2 -20 -6 -5 -5 20 -43 63 -43 50 0 -5 -4 -2
-9 6 -7 11 -14 11 -39 -2 -33 -16 -48 -12 -31 10 7 8 9 33 4 68 l-7 56 -66 -5
c-37 -3 -98 -8 -137 -11 -38 -2 -110 -7 -159 -11 l-89 -7 5 26 c4 20 1 27 -15
29 -11 2 -22 9 -25 16 -3 9 7 11 36 9 21 -2 44 -7 51 -11 6 -4 11 -3 11 3 0 5
-6 13 -12 18 -9 5 -3 9 17 13 26 4 30 10 33 43 2 21 -1 37 -7 37 -6 0 -11 7
-11 15 0 8 -4 15 -10 15 -5 0 -10 -6 -10 -12 0 -9 -4 -8 -10 2 -10 16 12 27
59 29 21 1 22 -1 10 -15 -13 -15 -11 -17 19 -12 17 2 32 1 32 -3 0 -4 -12 -9
-27 -11 -21 -2 -27 -8 -26 -23 2 -11 3 -46 5 -78 1 -31 4 -53 7 -48 4 5 26 12
51 15 25 2 47 5 49 5 3 1 -3 7 -13 14 -18 13 -18 14 -1 21 10 4 22 2 26 -5 5
-8 15 -9 41 0 28 9 82 17 141 21 5 0 7 10 5 22 -2 14 -11 22 -26 23 -13 1 -27
6 -30 12 -4 5 -20 13 -37 18 -30 7 -30 7 -7 16 13 5 35 6 48 3 21 -5 23 -9 12
-22 -7 -8 -8 -13 -3 -11 62 25 95 45 95 57 0 8 -6 12 -15 8 -8 -3 -15 -1 -15
3 0 5 7 11 15 15 16 6 21 46 5 46 -5 0 -7 7 -4 15 4 9 3 44 -1 79 -5 54 -10
65 -31 75 -32 14 -30 14 -47 -9z m-290 -192 c-2 -13 -4 -5 -4 17 -1 22 1 32 4
23 2 -10 2 -28 0 -40z m220 -14 c-3 -3 -12 -4 -19 -1 -8 3 -5 6 6 6 11 1 17
-2 13 -5z m30 -96 c-2 -7 5 -18 17 -25 l21 -12 -22 -1 c-13 0 -24 8 -28 19 -3
11 -16 22 -28 24 -15 3 -11 5 11 6 23 1 32 -3 29 -11z m-117 -32 c0 -2 -11 -6
-25 -8 -14 -3 -25 -1 -25 3 0 5 11 9 25 9 14 0 25 -2 25 -4z m-217 -23 c-7 -2
-21 -2 -30 0 -10 3 -4 5 12 5 17 0 24 -2 18 -5z m162 -23 c3 -5 -1 -10 -10
-10 -9 0 -13 5 -10 10 3 6 8 10 10 10 2 0 7 -4 10 -10z m65 -90 c8 -5 11 -12
7 -16 -3 -4 -13 -1 -22 6 -26 22 -25 6 1 -17 18 -16 24 -18 24 -7 0 9 5 12 10
9 6 -3 10 1 10 9 0 21 36 21 44 0 3 -8 10 -13 15 -10 5 3 11 -1 15 -9 3 -9 12
-12 22 -8 14 5 14 3 3 -16 -15 -23 -58 -28 -77 -9 -9 9 -12 9 -12 0 0 -7 -6
-12 -13 -12 -19 0 -77 56 -77 74 0 18 27 21 50 6z m-187 -26 c-8 -22 -53 -38
-67 -24 -8 8 -6 9 6 5 11 -4 20 1 28 14 13 25 42 29 33 5z m244 -70 c-3 -3
-12 -4 -19 -1 -8 3 -5 6 6 6 11 1 17 -2 13 -5z m247 -50 c3 -8 2 -12 -4 -9 -6
3 -10 10 -10 16 0 14 7 11 14 -7z m-64 -14 c0 -5 -4 -10 -10 -10 -5 0 -10 5
-10 10 0 6 5 10 10 10 6 0 10 -4 10 -10z"/>
<path d="M481 2850 c-1 -23 15 -43 28 -36 6 4 11 2 11 -3 0 -6 5 -11 10 -11
19 0 10 21 -14 30 -13 5 -26 15 -29 22 -4 10 -6 9 -6 -2z"/>
<path d="M1130 3346 c0 -9 7 -12 20 -9 11 3 17 9 14 14 -8 14 -34 10 -34 -5z"/>
<path d="M925 3330 c-3 -5 -1 -10 4 -10 6 0 11 5 11 10 0 6 -2 10 -4 10 -3 0
-8 -4 -11 -10z"/>
<path d="M1344 3261 c3 -5 -6 -12 -20 -15 l-26 -7 21 -18 c27 -24 27 -31 -3
-31 -39 0 -54 -10 -49 -31 7 -24 25 -25 21 -1 -2 13 3 16 21 14 34 -3 39 -11
17 -27 -17 -13 -17 -14 8 -21 25 -6 58 9 54 24 -1 4 3 17 10 29 10 18 9 23 -4
31 -13 7 -10 10 15 15 17 4 31 11 31 16 0 13 -35 20 -54 9 -12 -7 -18 -5 -22
6 -3 9 -10 16 -16 16 -5 0 -7 -4 -4 -9z"/>
<path d="M1118 3235 c-3 -3 -29 -7 -57 -9 -29 -2 -55 -6 -58 -9 -8 -8 7 -67
18 -67 5 0 9 6 9 14 0 9 18 16 55 21 38 4 58 12 65 24 5 10 6 21 3 25 -8 7
-28 8 -35 1z"/>
<path d="M1237 3220 c-21 -25 -22 -46 -2 -54 11 -4 15 2 15 24 0 17 7 33 18
39 14 8 14 10 2 11 -9 0 -23 -9 -33 -20z"/>
<path d="M4265 3229 c-44 -5 -152 -15 -240 -24 -327 -30 -305 -29 -305 -11 0
16 -2 16 -15 2 -18 -17 -21 -106 -4 -123 6 -6 28 -9 49 -6 21 3 46 1 55 -5 18
-9 25 -7 57 24 11 10 72 5 94 -8 5 -3 34 -2 64 2 63 9 84 -2 77 -37 -3 -19 -2
-21 9 -12 8 6 12 15 9 19 -3 5 18 11 47 13 85 8 117 5 112 -8 -3 -6 2 -12 11
-12 8 0 15 7 15 16 0 12 10 16 42 16 l43 0 3 83 c3 94 18 86 -123 71z m-59
-45 c-5 -14 -9 -14 -22 -3 -14 12 -14 14 3 20 23 8 27 4 19 -17z m-221 -24 c0
-13 -6 -25 -12 -27 -9 -3 -13 6 -13 27 0 21 4 30 13 28 6 -3 12 -15 12 -28z"/>
<path d="M1265 3210 c-3 -5 1 -10 9 -10 9 0 16 5 16 10 0 6 -4 10 -9 10 -6 0
-13 -4 -16 -10z"/>
<path d="M1083 3168 c-20 -10 -32 -28 -19 -28 16 0 56 21 56 30 0 12 -8 12
-37 -2z"/>
<path d="M3125 3160 c-3 -6 1 -7 9 -4 18 7 21 14 7 14 -6 0 -13 -4 -16 -10z"/>
<path d="M3485 3159 c-44 -5 -100 -9 -124 -10 l-44 -2 5 -69 c3 -38 8 -71 11
-75 3 -3 52 0 109 6 57 6 126 14 154 17 50 5 52 7 58 40 4 19 4 50 0 69 -6 34
-8 35 -48 34 -22 -1 -77 -6 -121 -10z"/>
<path d="M903 3122 c-12 -2 -27 -11 -35 -20 -11 -13 -11 -14 2 -7 8 5 28 9 45
10 16 0 32 4 35 9 6 10 -14 14 -47 8z"/>
<path d="M3090 3120 c8 -5 20 -10 25 -10 6 0 3 5 -5 10 -8 5 -19 10 -25 10 -5
0 -3 -5 5 -10z"/>
<path d="M756 3111 c-4 -7 -5 -15 -2 -18 9 -9 19 4 14 18 -4 11 -6 11 -12 0z"/>
<path d="M810 3110 c0 -5 7 -10 16 -10 8 0 12 5 9 10 -3 6 -10 10 -16 10 -5 0
-9 -4 -9 -10z"/>
<path d="M710 3106 c0 -2 7 -6 15 -10 8 -3 15 -1 15 4 0 6 -7 10 -15 10 -8 0
-15 -2 -15 -4z"/>
<path d="M925 3090 c-4 -6 -10 -8 -15 -5 -12 8 -41 -6 -34 -16 3 -5 10 -7 15
-4 5 4 9 -1 9 -9 0 -8 -10 -16 -22 -18 -12 -2 -23 -10 -26 -18 -4 -12 -2 -13
9 -2 20 18 39 15 39 -8 0 -17 7 -20 50 -20 28 0 50 4 50 9 0 4 -12 7 -27 4
-27 -3 -27 -3 -5 8 26 14 32 76 7 76 -8 0 -15 -4 -15 -9 0 -4 -7 -8 -15 -8 -9
0 -12 6 -9 15 7 17 -1 20 -11 5z"/>
<path d="M1319 3087 c18 -23 51 -22 51 1 0 14 -2 15 -10 2 -8 -13 -12 -13 -32
-1 -21 13 -22 13 -9 -2z"/>
<path d="M646 3064 c-20 -19 -20 -28 -1 -20 8 3 14 2 14 -2 -3 -20 2 -42 10
-42 12 0 21 39 10 46 -5 3 -7 9 -4 14 10 17 -14 20 -29 4z"/>
<path d="M806 3065 c5 -13 4 -16 -4 -11 -7 4 -12 1 -12 -8 0 -9 -4 -16 -10
-16 -5 0 -6 8 -3 18 6 15 5 16 -12 2 -17 -14 -18 -13 -13 2 5 11 2 15 -10 14
-23 -4 -29 -61 -8 -69 10 -4 16 -1 16 8 0 8 7 15 16 15 14 0 14 -3 4 -15 -16
-20 -6 -19 14 1 9 8 16 11 16 5 0 -6 4 -11 10 -11 5 0 7 7 4 15 -4 8 -1 21 5
29 9 10 8 16 -4 26 -13 11 -14 10 -9 -5z"/>
<path d="M1026 3041 c8 -43 5 -38 29 -43 12 -2 19 2 17 10 -2 10 2 10 17 2 23
-12 61 -13 61 -2 0 14 -15 30 -30 34 -8 2 -22 10 -30 18 -8 8 -27 16 -43 17
-26 1 -27 -1 -21 -36z m104 -21 c0 -5 -4 -10 -10 -10 -5 0 -10 5 -10 10 0 6 5
10 10 10 6 0 10 -4 10 -10z"/>
<path d="M1120 3070 c-9 -6 -10 -10 -3 -10 6 0 15 5 18 10 8 12 4 12 -15 0z"/>
<path d="M1204 3063 c3 -8 6 -17 6 -19 0 -2 9 -4 20 -4 11 0 20 -4 20 -9 0 -5
14 -11 30 -13 34 -5 34 -5 19 20 -8 12 -20 17 -35 14 -13 -2 -24 0 -24 6 0 5
-9 12 -21 15 -15 4 -19 2 -15 -10z"/>
<path d="M3908 3073 c6 -2 18 -2 25 0 6 3 1 5 -13 5 -14 0 -19 -2 -12 -5z"/>
<path d="M1170 3028 c0 -9 5 -20 10 -23 13 -8 13 5 0 25 -8 13 -10 13 -10 -2z"/>
<path d="M1330 3032 c0 -5 7 -9 15 -9 8 0 12 4 9 9 -3 4 -9 8 -15 8 -5 0 -9
-4 -9 -8z"/>
<path d="M3105 3030 c3 -5 8 -10 11 -10 2 0 4 5 4 10 0 6 -5 10 -11 10 -5 0
-7 -4 -4 -10z"/>
<path d="M3828 3033 c7 -3 16 -2 19 1 4 3 -2 6 -13 5 -11 0 -14 -3 -6 -6z"/>
<path d="M4010 3024 c0 -13 -7 -15 -33 -11 -32 5 -33 4 -29 -29 5 -41 23 -44
58 -9 14 14 29 25 35 25 6 0 6 7 -1 20 -13 24 -30 26 -30 4z"/>
<path d="M870 3005 c0 -8 5 -15 10 -15 6 0 10 7 10 15 0 8 -4 15 -10 15 -5 0
-10 -7 -10 -15z"/>
<path d="M3592 3006 c-40 -15 -58 -31 -43 -40 18 -11 71 -15 71 -6 0 5 7 7 15
4 20 -8 31 22 15 41 -14 17 -13 17 -58 1z"/>
<path d="M3710 3000 c0 -5 4 -10 9 -10 6 0 13 5 16 10 3 6 -1 10 -9 10 -9 0
-16 -4 -16 -10z"/>
<path d="M3838 3003 c12 -2 30 -2 40 0 9 3 -1 5 -23 4 -22 0 -30 -2 -17 -4z"/>
<path d="M277 2968 c-5 -18 3 -48 14 -48 5 0 9 14 9 30 0 30 -15 41 -23 18z"/>
<path d="M1245 2960 c-3 -5 1 -10 9 -10 9 0 16 5 16 10 0 6 -4 10 -9 10 -6 0
-13 -4 -16 -10z"/>
<path d="M1285 2960 c-3 -5 -2 -10 4 -10 5 0 13 5 16 10 3 6 2 10 -4 10 -5 0
-13 -4 -16 -10z"/>
<path d="M1325 2961 c-3 -5 -1 -12 4 -15 5 -3 11 1 15 9 6 16 -9 21 -19 6z"/>
<path d="M3887 2964 c-3 -3 -3 -12 0 -20 6 -17 39 -19 49 -3 11 18 -33 39 -49
23z"/>
<path d="M498 2953 c7 -3 16 -2 19 1 4 3 -2 6 -13 5 -11 0 -14 -3 -6 -6z"/>
<path d="M1115 2934 c-9 -14 -14 -29 -10 -32 6 -7 44 36 45 51 0 16 -19 6 -35
-19z"/>
<path d="M1156 2938 c-18 -25 -20 -38 -8 -38 4 0 16 14 25 30 21 35 6 41 -17
8z"/>
<path d="M1192 2935 c-14 -31 -15 -35 -4 -35 4 0 16 14 25 30 15 24 15 30 4
30 -8 0 -19 -11 -25 -25z"/>
<path d="M1040 2929 c-7 -11 -9 -24 -5 -27 7 -7 35 25 35 40 0 16 -19 8 -30
-13z"/>
<path d="M1072 2925 c-17 -36 4 -41 23 -5 13 24 13 30 2 30 -8 0 -19 -11 -25
-25z"/>
<path d="M995 2917 c-4 -10 -5 -21 -1 -24 10 -10 18 4 13 24 -4 17 -4 17 -12
0z"/>
<path d="M1220 2914 c0 -8 5 -12 10 -9 6 3 10 10 10 16 0 5 -4 9 -10 9 -5 0
-10 -7 -10 -16z"/>
<path d="M3646 2921 c-11 -17 -74 -44 -89 -38 -17 6 -45 -24 -39 -41 2 -7 10
-12 17 -12 7 0 15 -4 17 -10 4 -13 53 12 53 27 0 6 3 15 8 19 4 4 7 1 7 -7 0
-8 10 -14 23 -14 21 0 23 4 20 39 -4 44 -8 53 -17 37z"/>
<path d="M3797 2924 c-4 -4 -23 -8 -43 -10 -44 -3 -48 -7 -39 -33 7 -22 41
-27 104 -15 36 7 43 37 12 54 -23 12 -26 12 -34 4z"/>
<path d="M672 2891 c-9 -5 -10 -15 -4 -31 l9 -24 7 28 c8 32 6 38 -12 27z"/>
<path d="M717 2869 c13 -22 19 -26 21 -14 5 24 -5 45 -23 45 -14 0 -14 -4 2
-31z"/>
<path d="M3930 2884 c0 -13 18 -39 24 -34 2 3 -2 14 -10 24 -8 11 -14 16 -14
10z"/>
<path d="M3985 2870 c-3 -5 -1 -10 4 -10 6 0 11 5 11 10 0 6 -2 10 -4 10 -3 0
-8 -4 -11 -10z"/>
<path d="M3405 2860 c-38 -3 -78 -10 -87 -14 -25 -11 -23 -30 2 -23 11 3 18 1
14 -4 -3 -5 2 -9 10 -9 9 0 16 7 16 15 0 8 5 15 10 15 6 0 10 -4 10 -10 0 -5
12 -10 28 -11 24 0 25 -1 7 -9 -11 -5 -15 -10 -10 -11 6 -1 -28 -7 -75 -14
l-85 -12 181 -2 c187 -1 244 4 244 22 0 6 -43 8 -127 3 -81 -4 -123 -3 -114 3
8 5 16 17 17 26 4 24 14 32 14 11 0 -24 21 -15 31 12 6 15 5 22 -4 20 -7 -1
-43 -4 -82 -8z"/>
<path d="M4140 2835 c-237 -16 -369 -24 -397 -25 -15 0 -23 -6 -23 -16 0 -15
12 -16 103 -11 56 4 207 10 335 13 l232 7 0 23 c0 28 21 27 -250 9z"/>
<path d="M683 2813 c9 -2 25 -2 35 0 9 3 1 5 -18 5 -19 0 -27 -2 -17 -5z"/>
<path d="M1230 2810 c0 -5 7 -10 16 -10 8 0 12 5 9 10 -3 6 -10 10 -16 10 -5
0 -9 -4 -9 -10z"/>
<path d="M1120 2800 c0 -5 -13 -10 -29 -10 -17 0 -33 -4 -36 -10 -4 -6 11 -8
42 -6 26 3 49 6 51 7 4 3 22 7 44 8 31 2 20 7 -29 15 -27 4 -43 2 -43 -4z"/>
<path d="M4351 2763 c-22 -3 -30 -7 -22 -12 15 -10 61 -2 61 10 0 5 -1 8 -2 7
-2 0 -18 -3 -37 -5z"/>
<path d="M3218 2713 c7 -3 16 -2 19 1 4 3 -2 6 -13 5 -11 0 -14 -3 -6 -6z"/>
<path d="M1010 2699 c0 -5 5 -7 10 -4 6 3 10 8 10 11 0 2 -4 4 -10 4 -5 0 -10
-5 -10 -11z"/>
<path d="M3995 2690 c-3 -5 -1 -10 4 -10 6 0 11 5 11 10 0 6 -2 10 -4 10 -3 0
-8 -4 -11 -10z"/>
<path d="M4264 2668 c-4 -6 -3 -8 4 -4 6 3 13 2 16 -3 4 -5 -4 -13 -16 -17
-12 -3 -24 -2 -25 3 -2 5 -24 7 -51 3 -27 -3 -87 -5 -135 -5 -48 1 -87 -2 -87
-7 0 -5 -9 -4 -19 2 -30 16 -49 12 -56 -11 -6 -19 -12 -20 -48 -15 -23 4 -44
12 -48 17 -3 6 -17 9 -30 7 -19 -2 -25 -10 -27 -37 l-3 -34 108 7 c132 8 161
13 192 33 22 14 24 14 17 -2 -6 -16 1 -17 71 -11 43 3 120 8 171 12 81 5 92 8
92 25 0 10 -6 19 -12 19 -10 0 -10 2 0 9 11 7 10 10 -3 15 -26 10 -35 7 -29
-8 4 -11 0 -13 -15 -9 -12 3 -21 9 -21 14 0 13 -38 11 -46 -3z m-474 -64 c0
-8 -4 -12 -10 -9 -5 3 -10 10 -10 16 0 5 5 9 10 9 6 0 10 -7 10 -16z"/>
<path d="M2 2640 c0 -19 2 -27 5 -17 2 9 2 25 0 35 -3 9 -5 1 -5 -18z"/>
<path d="M3536 2663 c-2 -2 -59 -5 -127 -7 -68 -2 -125 -5 -126 -6 -7 -6 -50
-3 -61 4 -21 13 -59 -2 -65 -26 -8 -28 6 -43 30 -33 32 14 72 16 92 6 14 -8
21 -8 24 2 3 7 9 1 15 -13 9 -24 7 -25 -32 -31 -22 -3 -47 -4 -53 -2 -7 3 -26
0 -43 -5 -18 -7 -32 -7 -35 -1 -7 10 -25 3 -25 -11 0 -8 286 -4 300 5 3 2 60
7 125 10 66 4 122 9 125 10 3 2 4 22 2 44 -4 39 -5 40 -51 46 -25 3 -56 7 -68
9 -13 2 -24 1 -27 -1z m-161 -75 c-4 -10 -14 -14 -26 -11 -26 7 -24 21 4 25
28 5 29 4 22 -14z"/>
<path d="M3830 2636 c0 -2 9 -6 20 -9 11 -3 20 -1 20 4 0 5 -9 9 -20 9 -11 0
-20 -2 -20 -4z"/>
<path d="M3104 2549 c-8 -13 -11 -30 -19 -104 -9 -72 13 -34 26 46 10 62 8 81
-7 58z"/>
<path d="M62 2480 c0 -14 2 -19 5 -12 2 6 2 18 0 25 -3 6 -5 1 -5 -13z"/>
<path d="M85 2490 c3 -5 13 -10 21 -10 8 0 14 5 14 10 0 6 -9 10 -21 10 -11 0
-17 -4 -14 -10z"/>
<path d="M4348 2463 c7 -3 16 -2 19 1 4 3 -2 6 -13 5 -11 0 -14 -3 -6 -6z"/>
<path d="M4178 2453 c7 -3 16 -2 19 1 4 3 -2 6 -13 5 -11 0 -14 -3 -6 -6z"/>
<path d="M4023 2443 c9 -2 25 -2 35 0 9 3 1 5 -18 5 -19 0 -27 -2 -17 -5z"/>
<path d="M3850 2430 c-11 -7 -5 -8 20 -4 43 8 51 14 19 14 -13 0 -31 -5 -39
-10z"/>
<path d="M4323 2433 c15 -2 37 -2 50 0 12 2 0 4 -28 4 -27 0 -38 -2 -22 -4z"/>
<path d="M3718 2423 c17 -2 47 -2 65 0 17 2 3 4 -33 4 -36 0 -50 -2 -32 -4z"/>
<path d="M4168 2423 c6 -2 18 -2 25 0 6 3 1 5 -13 5 -14 0 -19 -2 -12 -5z"/>
<path d="M4223 2423 c9 -2 23 -2 30 0 6 3 -1 5 -18 5 -16 0 -22 -2 -12 -5z"/>
<path d="M3480 2410 l-75 -6 75 -1 c41 0 89 3 105 7 l30 8 -30 -1 c-16 0 -64
-3 -105 -7z"/>
<path d="M3827 2405 c-165 -13 -229 -27 -85 -19 46 3 93 6 106 8 12 2 22 -1
22 -5 0 -5 -24 -9 -52 -9 -29 0 -84 -3 -123 -6 -45 -4 -65 -2 -57 4 20 14 -11
18 -83 11 l-60 -6 60 -2 c33 -1 54 -5 47 -8 -9 -3 -5 -12 13 -30 24 -25 27
-26 123 -19 208 14 257 18 265 23 4 2 7 -1 7 -6 0 -6 -8 -11 -17 -12 -10 0
-25 -2 -34 -4 -9 -1 -72 -6 -140 -10 -142 -7 -156 -10 -156 -30 0 -12 12 -14
61 -9 153 13 288 18 293 11 9 -15 -15 -30 -47 -29 -17 0 -28 -4 -25 -9 4 -5
27 -9 52 -9 43 0 45 1 39 24 -8 31 1 36 61 37 28 1 64 10 84 21 l34 19 -94 -6
c-57 -4 -91 -3 -87 3 4 7 113 17 293 26 12 1 25 5 30 10 8 8 -175 2 -279 -10
-27 -3 -48 -1 -48 4 0 13 54 20 210 28 74 3 140 11 145 16 7 7 -12 8 -55 4
-114 -10 -309 -15 -255 -7 50 8 49 8 -20 8 -38 0 -141 -5 -228 -12z m141 -12
c-15 -2 -42 -2 -60 0 -18 2 -6 4 27 4 33 0 48 -2 33 -4z m46 -23 c-11 -11
-384 -39 -384 -28 0 10 -16 8 150 22 191 17 246 18 234 6z"/>
<path d="M77 2403 c-11 -11 -8 -51 5 -59 7 -5 9 0 6 14 -3 12 -2 22 3 24 4 2
5 9 0 16 -4 7 -10 9 -14 5z"/>
<path d="M115 2389 c-4 -12 -2 -26 4 -32 8 -8 11 -2 11 21 0 37 -6 41 -15 11z"/>
<path d="M3323 2393 c15 -2 37 -2 50 0 12 2 0 4 -28 4 -27 0 -38 -2 -22 -4z"/>
<path d="M3183 2383 c9 -2 25 -2 35 0 9 3 1 5 -18 5 -19 0 -27 -2 -17 -5z"/>
<path d="M3138 2363 c-49 -3 -56 -7 -55 -23 1 -16 9 -20 43 -20 25 0 47 6 54
15 7 8 18 15 26 15 7 0 16 5 19 10 3 6 -2 9 -12 8 -10 -1 -44 -3 -75 -5z"/>
<path d="M3301 2349 c-29 -5 -61 -23 -93 -50 -27 -22 -54 -42 -61 -43 -7 -1
-16 -4 -22 -7 -5 -4 -22 -9 -37 -13 -26 -6 -56 -42 -44 -53 3 -3 19 6 36 21
39 32 54 33 86 1 19 -19 35 -25 68 -25 24 0 64 -3 90 -6 42 -6 50 -12 83 -59
31 -44 41 -52 58 -45 11 4 60 10 108 14 49 4 95 10 103 13 22 8 17 22 -11 29
l-25 6 30 28 c30 28 31 28 242 40 117 7 215 13 218 13 3 1 15 -5 27 -14 25
-17 21 -29 -10 -29 -10 0 -17 -5 -15 -12 6 -17 65 -27 171 -27 81 -1 87 0 87
19 0 13 -10 24 -25 30 -31 12 -32 26 -4 41 15 8 19 8 15 0 -4 -6 -2 -11 3 -11
6 0 11 14 11 30 0 27 -3 30 -30 30 -30 0 -80 -37 -80 -60 0 -5 -17 -9 -37 -9
-36 1 -36 2 -9 8 16 3 31 12 34 20 4 11 -9 13 -61 9 -54 -3 -67 -1 -71 12 -3
13 -4 13 -5 -1 -1 -14 -23 -17 -143 -23 -329 -17 -321 -17 -309 -2 9 11 8 18
-4 30 -9 9 -21 14 -26 11 -5 -4 -9 1 -9 10 0 8 -14 31 -32 50 l-31 35 -116 -1
c-64 -1 -136 -5 -160 -10z m1079 -185 c0 -2 -11 -4 -25 -4 -14 0 -25 4 -25 9
0 4 11 6 25 3 14 -2 25 -6 25 -8z"/>
<path d="M78 2279 c-3 -19 -1 -43 5 -54 7 -13 7 -20 -2 -23 -6 -2 -11 -8 -11
-13 0 -6 4 -8 9 -5 9 6 21 -65 25 -161 2 -33 6 -65 9 -70 15 -26 29 -210 16
-218 -5 -4 -4 -17 4 -33 21 -41 41 -212 28 -225 -8 -8 -11 -6 -11 6 0 21 0 21
-50 1 -25 -10 -47 -28 -56 -45 -16 -32 -17 -32 79 -44 40 -5 47 -4 47 11 0 31
14 4 15 -30 1 -18 5 -38 9 -44 4 -7 2 -12 -4 -12 -7 0 -8 -5 -3 -12 4 -7 8
-26 9 -43 0 -16 4 -45 8 -62 6 -28 5 -33 -10 -33 -16 0 -16 -1 -1 -12 14 -12
14 -15 -8 -30 -21 -16 -25 -16 -39 -3 -10 10 -35 15 -81 15 l-66 0 2 -122 c1
-107 3 -120 15 -103 8 10 14 28 14 39 1 21 1 21 12 1 21 -37 35 -46 42 -29 3
9 6 25 6 37 1 21 2 20 15 -4 19 -35 39 -42 55 -19 17 23 47 14 53 -16 3 -18 1
-24 -9 -20 -8 3 -14 1 -14 -3 0 -5 7 -11 15 -15 8 -3 15 -14 15 -24 0 -10 9
-27 20 -37 14 -13 20 -31 20 -62 0 -32 4 -43 12 -40 7 2 12 11 10 18 -9 35
-10 69 -2 69 10 0 20 -25 20 -52 0 -11 5 -18 12 -15 9 3 12 25 10 78 -2 41 -6
78 -9 82 -3 5 -6 33 -7 64 -1 35 -7 58 -17 64 -11 7 -11 9 0 9 8 0 11 6 6 18
-3 9 -9 49 -11 87 -3 39 -12 106 -20 150 -16 88 -19 115 -22 192 -1 30 -8 58
-17 66 -9 10 -11 17 -4 19 10 3 -35 411 -49 432 -5 8 -14 126 -13 178 0 17 -2
17 -27 1 l-27 -17 23 25 c27 31 30 69 4 69 -9 0 -25 12 -33 26 l-16 27 -5 -34z
m57 -61 c5 -4 0 -6 -13 -5 -22 1 -27 8 -15 20 3 4 9 4 12 0 3 -4 10 -11 16
-15z m95 -708 c0 -5 -7 -10 -15 -10 -8 0 -15 5 -15 10 0 6 7 10 15 10 8 0 15
-4 15 -10z m-66 -65 c3 -8 1 -15 -4 -15 -6 0 -10 7 -10 15 0 8 2 15 4 15 2 0
6 -7 10 -15z m-124 -338 c8 -7 16 -19 18 -27 2 -11 -1 -11 -11 3 -8 9 -19 17
-26 17 -6 0 -11 5 -11 10 0 13 12 12 30 -3z"/>
<path d="M3070 2291 c0 -15 39 -19 51 -5 9 11 6 14 -20 14 -17 0 -31 -4 -31
-9z"/>
<path d="M750 2259 c0 -21 1 -22 24 -13 22 8 20 21 -4 27 -15 4 -20 0 -20 -14z"/>
<path d="M3148 2158 c-3 -7 -20 -11 -46 -10 -47 3 -62 -14 -62 -72 0 -35 13
-48 23 -23 3 6 5 -17 5 -53 0 -36 -2 -56 -5 -45 -9 38 -22 37 -28 -1 -3 -22
-13 -67 -21 -101 -17 -74 -17 -73 -4 -73 5 0 14 15 19 33 5 17 10 24 10 14 1
-10 5 -16 9 -13 5 3 6 -9 4 -25 l-4 -30 108 1 c155 2 284 17 306 37 22 20 23
43 2 43 -10 0 -14 6 -11 14 3 7 -3 27 -13 44 -34 56 -125 51 -152 -8 -11 -27
-15 -28 -120 -36 -59 -5 -108 -6 -108 -2 0 3 47 9 105 13 71 5 105 11 102 19
-4 12 -138 13 -170 1 -12 -5 -17 -2 -16 11 0 26 58 163 58 142 1 -21 5 -21 90
-7 72 13 91 23 91 49 0 28 -25 41 -86 47 -48 5 -60 3 -71 -13 -15 -21 -17 -6
-3 30 5 15 6 26 1 26 -5 0 -11 -5 -13 -12z m-101 -300 c-3 -8 -6 -5 -6 6 -1
11 2 17 5 13 3 -3 4 -12 1 -19z"/>
<path d="M638 2103 c6 -2 18 -2 25 0 6 3 1 5 -13 5 -14 0 -19 -2 -12 -5z"/>
<path d="M558 2083 c6 -2 18 -2 25 0 6 3 1 5 -13 5 -14 0 -19 -2 -12 -5z"/>
<path d="M630 2066 c15 -8 72 -16 140 -20 l115 -5 -110 14 c-60 7 -123 16
-140 19 l-30 5 25 -13z"/>
<path d="M327 1904 c-4 -4 -7 -15 -7 -24 0 -9 -8 -24 -18 -34 -18 -15 -18 -22
-6 -109 7 -50 13 -98 14 -104 0 -8 10 -11 28 -7 50 10 67 12 83 13 15 1 15 6
-1 66 -10 36 -13 66 -8 67 13 5 -9 60 -30 76 -9 7 -17 22 -17 35 0 21 -24 35
-38 21z"/>
<path d="M3013 1763 c-7 -3 -13 -10 -13 -16 0 -7 -7 -24 -14 -39 -12 -22 -12
-28 -2 -28 12 0 53 76 45 84 -2 2 -10 1 -16 -1z"/>
<path d="M2936 1553 c-6 -14 -5 -15 5 -6 7 7 10 15 7 18 -3 3 -9 -2 -12 -12z"/>
<path d="M328 1524 c-2 -5 0 -37 5 -71 l9 -62 114 -3 c103 -3 115 -1 120 15 3
10 19 20 35 24 40 8 26 22 -63 63 -53 25 -90 34 -143 38 -40 2 -74 1 -77 -4z"/>
<path d="M905 1500 c-3 -5 -1 -10 4 -10 6 0 11 5 11 10 0 6 -2 10 -4 10 -3 0
-8 -4 -11 -10z"/>
<path d="M780 1430 c-12 -8 -12 -10 5 -10 11 0 27 5 35 10 12 8 12 10 -5 10
-11 0 -27 -5 -35 -10z"/>
<path d="M674 1412 c4 -6 -2 -15 -11 -21 -15 -8 -11 -10 20 -11 20 0 37 2 37
4 0 2 -12 11 -26 21 -15 9 -24 12 -20 7z"/>
<path d="M1143 1378 c-12 -6 -23 -19 -26 -29 -7 -27 28 -25 47 3 27 38 20 46
-21 26z"/>
<path d="M728 1333 c7 -3 16 -2 19 1 4 3 -2 6 -13 5 -11 0 -14 -3 -6 -6z"/>
<path d="M2980 1270 c8 -29 7 -30 -23 -31 l-32 -1 33 -9 32 -10 -1 -72 c0 -40
4 -103 11 -141 6 -41 7 -73 2 -78 -5 -5 -55 -9 -112 -9 -56 0 -100 -3 -96 -6
6 -6 68 -11 174 -12 38 -1 42 -3 42 -26 0 -20 5 -25 26 -25 16 0 23 4 18 11
-7 12 602 6 869 -7 115 -6 122 -9 118 -41 -1 -8 9 -13 23 -13 19 0 24 4 19 16
-5 14 11 15 151 12 86 -1 156 0 156 5 0 7 -70 10 -212 7 -52 -1 -78 3 -78 10
0 6 -4 9 -9 5 -12 -7 -22 73 -24 200 -2 90 0 100 15 99 10 -1 15 2 12 7 -3 5
7 9 22 9 26 0 26 -1 11 -18 -19 -21 -22 -42 -7 -42 5 0 9 3 8 8 -1 4 3 16 9
28 8 14 23 21 54 23 39 2 41 1 28 -16 -13 -16 -13 -16 11 0 13 9 38 17 54 17
28 0 28 -1 13 -18 -10 -10 -17 -25 -17 -33 0 -8 6 -3 13 11 9 17 26 29 57 37
56 14 58 14 -132 14 l-158 0 0 24 c0 13 6 26 13 28 7 3 5 6 -5 6 -10 1 -18 8
-18 16 0 13 -9 15 -52 9 -66 -8 -74 -14 -20 -14 37 0 42 -3 42 -24 l0 -23
-182 -1 c-257 -1 -255 -1 -239 -11 8 -5 29 -7 48 -4 32 5 46 -8 23 -22 -5 -3
-10 -11 -10 -17 0 -6 9 1 21 16 15 19 30 26 55 26 23 0 33 -4 28 -11 -5 -8 -1
-8 14 0 29 15 65 14 56 -1 -6 -10 -4 -10 7 -2 21 16 162 17 153 1 -6 -8 -3 -8
8 1 15 12 17 6 23 -52 4 -35 4 -69 1 -75 -4 -5 -2 -13 4 -16 8 -5 7 -11 -1
-21 -8 -10 -8 -14 0 -14 7 0 11 -21 11 -56 0 -48 -2 -55 -16 -50 -15 6 -15 4
-3 -10 12 -15 -17 -16 -396 -10 -395 7 -575 13 -583 21 -4 4 -11 120 -15 240
-2 59 -2 60 28 66 29 6 28 7 -8 8 -33 1 -38 4 -37 24 5 51 0 67 -19 67 -17 0
-18 -4 -11 -30z"/>
<path d="M790 1265 c-23 -13 -20 -14 50 -14 68 0 73 1 56 14 -25 19 -73 19
-106 0z"/>
<path d="M1115 1260 c3 -5 10 -10 16 -10 5 0 9 5 9 10 0 6 -7 10 -16 10 -8 0
-12 -4 -9 -10z"/>
<path d="M3048 1253 c6 -2 18 -2 25 0 6 3 1 5 -13 5 -14 0 -19 -2 -12 -5z"/>
<path d="M3118 1253 c6 -2 18 -2 25 0 6 3 1 5 -13 5 -14 0 -19 -2 -12 -5z"/>
<path d="M3188 1253 c6 -2 18 -2 25 0 6 3 1 5 -13 5 -14 0 -19 -2 -12 -5z"/>
<path d="M3268 1253 c7 -3 16 -2 19 1 4 3 -2 6 -13 5 -11 0 -14 -3 -6 -6z"/>
<path d="M3338 1253 c6 -2 18 -2 25 0 6 3 1 5 -13 5 -14 0 -19 -2 -12 -5z"/>
<path d="M3413 1253 c9 -2 23 -2 30 0 6 3 -1 5 -18 5 -16 0 -22 -2 -12 -5z"/>
<path d="M3488 1253 c6 -2 18 -2 25 0 6 3 1 5 -13 5 -14 0 -19 -2 -12 -5z"/>
<path d="M3563 1253 c9 -2 23 -2 30 0 6 3 -1 5 -18 5 -16 0 -22 -2 -12 -5z"/>
<path d="M3643 1253 c9 -2 23 -2 30 0 6 3 -1 5 -18 5 -16 0 -22 -2 -12 -5z"/>
<path d="M3713 1253 c9 -2 25 -2 35 0 9 3 1 5 -18 5 -19 0 -27 -2 -17 -5z"/>
<path d="M3813 1253 c20 -2 54 -2 75 0 20 2 3 4 -38 4 -41 0 -58 -2 -37 -4z"/>
<path d="M920 1244 c-14 -2 -59 -6 -100 -9 -65 -5 -76 -9 -77 -25 -2 -18 5
-19 95 -14 116 6 128 9 113 28 -6 7 -8 16 -4 19 3 4 4 6 2 6 -2 -1 -15 -3 -29
-5z"/>
<path d="M0 1219 c0 -14 7 -19 29 -19 17 0 33 5 36 10 3 6 5 10 3 10 -2 0 -18
4 -36 9 -28 9 -32 7 -32 -10z"/>
<path d="M1030 1225 c0 -8 7 -15 15 -15 9 0 12 6 9 15 -4 8 -10 15 -15 15 -5
0 -9 -7 -9 -15z"/>
<path d="M2830 1233 c0 -5 20 -8 45 -8 25 0 45 3 45 8 0 4 -20 7 -45 7 -25 0
-45 -3 -45 -7z"/>
<path d="M4123 1233 c20 -2 54 -2 75 0 20 2 3 4 -38 4 -41 0 -58 -2 -37 -4z"/>
<path d="M4243 1234 c8 -9 147 -10 147 -1 0 4 -34 7 -77 7 -42 0 -74 -3 -70
-6z"/>
<path d="M3128 1203 c7 -3 16 -2 19 1 4 3 -2 6 -13 5 -11 0 -14 -3 -6 -6z"/>
<path d="M3198 1203 c7 -3 16 -2 19 1 4 3 -2 6 -13 5 -11 0 -14 -3 -6 -6z"/>
<path d="M3245 1200 c-13 -5 -14 -9 -5 -9 8 0 24 4 35 9 13 5 14 9 5 9 -8 0
-24 -4 -35 -9z"/>
<path d="M3398 1203 c-10 -2 -18 -8 -18 -12 0 -12 25 -9 38 6 13 13 10 14 -20
6z"/>
<path d="M3475 1200 c-13 -6 -15 -9 -5 -9 8 0 22 4 30 9 18 12 2 12 -25 0z"/>
<path d="M3545 1200 c-16 -4 -27 -8 -22 -9 4 0 0 -13 -9 -28 l-16 -28 22 28
c12 15 28 27 35 27 8 0 17 5 20 10 3 6 5 9 3 9 -2 -1 -16 -5 -33 -9z"/>
<path d="M43 1193 c-35 -3 -43 -8 -43 -24 0 -16 7 -19 53 -19 30 0 57 3 60 6
8 8 -11 45 -21 42 -4 -1 -26 -3 -49 -5z"/>
<path d="M826 1183 c-78 -3 -89 -6 -93 -23 -3 -12 -14 -20 -27 -21 -11 0 -66
-2 -121 -5 -55 -3 -124 -6 -152 -6 -50 -2 -53 -3 -53 -27 0 -15 6 -48 13 -75
11 -41 18 -51 40 -57 23 -6 27 -4 27 14 1 21 1 21 14 -2 8 -15 16 -19 20 -13
4 6 13 9 21 5 11 -3 15 2 15 18 0 14 3 19 8 13 4 -6 17 -16 30 -23 18 -10 22
-9 22 4 0 12 6 14 28 9 15 -4 30 -12 34 -18 4 -6 8 0 8 13 0 18 3 22 11 14 6
-6 22 -8 38 -4 14 3 41 6 59 6 28 -1 32 2 28 20 -4 17 -3 18 7 5 16 -20 57
-14 57 8 1 16 1 16 11 0 14 -25 59 -20 59 7 1 19 1 19 11 2 8 -14 14 -16 25
-6 8 6 25 13 39 14 29 4 81 43 90 68 4 9 11 17 16 17 5 0 9 7 9 16 0 12 -6 15
-22 10 -54 -15 -115 -18 -123 -6 -4 7 -2 16 6 21 9 6 0 8 -26 7 -22 -1 -80 -4
-129 -5z m-3 -20 c-19 -7 -16 -23 4 -23 9 0 13 -3 10 -6 -3 -4 -1 -16 4 -28 6
-11 -3 -5 -19 14 -38 42 -38 45 -9 47 12 0 16 -1 10 -4z m87 -14 c0 -17 -18
-18 -34 0 -16 17 -15 18 9 14 14 -3 25 -9 25 -14z m-10 -32 c13 -5 13 -6 -1
-6 -9 -1 -24 9 -35 22 -19 22 -19 22 1 6 11 -9 27 -19 35 -22z"/>
<path d="M3815 1149 c-4 -6 -5 -12 -2 -15 2 -3 7 2 10 11 7 17 1 20 -8 4z"/>
<path d="M3967 1140 c-3 -11 -3 -20 -1 -20 2 0 8 9 14 20 6 11 7 20 2 20 -6 0
-12 -9 -15 -20z"/>
<path d="M3890 1140 c0 -5 5 -10 10 -10 6 0 10 5 10 10 0 6 -4 10 -10 10 -5 0
-10 -4 -10 -10z"/>
<path d="M4370 1135 c-7 -9 -11 -17 -9 -20 3 -2 10 5 17 15 14 24 10 26 -8 5z"/>
<path d="M2921 1074 c0 -11 3 -14 6 -6 3 7 2 16 -1 19 -3 4 -6 -2 -5 -13z"/>
<path d="M4091 1064 c0 -11 3 -14 6 -6 3 7 2 16 -1 19 -3 4 -6 -2 -5 -13z"/>
<path d="M3102 1043 c1 -18 6 -33 10 -33 11 0 10 32 -2 50 -8 11 -10 7 -8 -17z"/>
<path d="M3182 1045 c0 -16 2 -22 5 -12 2 9 2 23 0 30 -3 6 -5 -1 -5 -18z"/>
<path d="M3252 1040 c0 -19 2 -27 5 -17 2 9 2 25 0 35 -3 9 -5 1 -5 -18z"/>
<path d="M3320 1053 c0 -10 5 -25 10 -33 8 -12 10 -9 10 12 0 15 -4 30 -10 33
-5 3 -10 -2 -10 -12z"/>
<path d="M3402 1040 c0 -19 2 -27 5 -17 2 9 2 25 0 35 -3 9 -5 1 -5 -18z"/>
<path d="M3552 1045 c0 -16 2 -22 5 -12 2 9 2 23 0 30 -3 6 -5 -1 -5 -18z"/>
<path d="M3628 1045 c2 -14 6 -25 8 -25 2 0 4 11 4 25 0 14 -4 25 -9 25 -4 0
-6 -11 -3 -25z"/>
<path d="M3705 1058 c-4 -10 -4 -26 0 -35 8 -17 8 -17 12 0 3 9 3 25 0 35 -4
16 -4 16 -12 0z"/>
<path d="M3781 1030 c0 -36 2 -41 10 -27 7 12 7 27 0 45 -9 25 -9 24 -10 -18z"/>
<path d="M3940 1049 c0 -11 4 -18 10 -14 5 3 7 12 3 20 -7 21 -13 19 -13 -6z"/>
<path d="M3475 1039 c6 -33 15 -36 15 -6 0 15 -4 27 -9 27 -6 0 -8 -10 -6 -21z"/>
<path d="M3860 1032 c0 -18 4 -32 9 -32 4 0 7 12 5 26 -4 38 -14 42 -14 6z"/>
<path d="M4240 1030 c0 -11 4 -20 9 -20 5 0 7 9 4 20 -3 11 -7 20 -9 20 -2 0
-4 -9 -4 -20z"/>
<path d="M4160 1019 c0 -11 4 -18 10 -14 5 3 7 12 3 20 -7 21 -13 19 -13 -6z"/>
<path d="M4320 1020 c0 -5 5 -10 10 -10 6 0 10 5 10 10 0 6 -4 10 -10 10 -5 0
-10 -4 -10 -10z"/>
<path d="M4320 980 c0 -5 5 -10 10 -10 6 0 10 5 10 10 0 6 -4 10 -10 10 -5 0
-10 -4 -10 -10z"/>
<path d="M3991 924 c0 -11 3 -14 6 -6 3 7 2 16 -1 19 -3 4 -6 -2 -5 -13z"/>
<path d="M173 843 c9 -2 23 -2 30 0 6 3 -1 5 -18 5 -16 0 -22 -2 -12 -5z"/>
<path d="M78 833 c7 -3 16 -2 19 1 4 3 -2 6 -13 5 -11 0 -14 -3 -6 -6z"/>
<path d="M3196 831 c-4 -5 3 -7 14 -4 23 6 26 13 6 13 -8 0 -17 -4 -20 -9z"/>
<path d="M4140 790 c0 -5 11 -10 24 -10 14 0 28 5 31 10 4 6 -7 10 -24 10 -17
0 -31 -4 -31 -10z"/>
<path d="M4259 792 c9 -3 9 -7 0 -18 -8 -10 -8 -14 0 -14 6 0 11 5 11 11 0 7
11 8 30 4 29 -6 96 2 87 12 -3 2 -35 5 -73 7 -37 1 -62 0 -55 -2z"/>
<path d="M3355 380 c-3 -5 1 -10 10 -10 9 0 13 5 10 10 -3 6 -8 10 -10 10 -2
0 -7 -4 -10 -10z"/>
<path d="M3406 369 c3 -5 35 -9 71 -9 37 0 64 2 62 4 -9 8 -138 13 -133 5z"/>
<path d="M3565 355 c24 -8 156 -12 144 -4 -8 5 -45 8 -84 8 -38 0 -65 -2 -60
-4z"/>
<path d="M3878 333 c6 -2 18 -2 25 0 6 3 1 5 -13 5 -14 0 -19 -2 -12 -5z"/>
<path d="M3406 263 c31 -64 54 -138 69 -225 l6 -38 427 0 c295 0 431 3 439 11
8 8 13 8 17 0 19 -31 26 0 26 118 l0 130 -42 5 c-24 3 -151 12 -283 21 -132 9
-325 22 -430 30 -104 8 -206 15 -226 15 l-37 0 34 -67z m315 -70 c-12 -20 -14
-14 -5 12 4 9 9 14 11 11 3 -2 0 -13 -6 -23z m473 -153 c-5 -4 -18 -4 -29 0
-19 7 -19 8 5 18 25 10 41 -2 24 -18z m52 8 c4 -6 3 -8 -4 -4 -5 3 -13 0 -15
-6 -3 -8 -6 -6 -6 5 -1 19 14 23 25 5z m111 6 c-3 -3 -12 -4 -19 -1 -8 3 -5 6
6 6 11 1 17 -2 13 -5z m-470 -36 c-3 -8 -6 -5 -6 6 -1 11 2 17 5 13 3 -3 4
-12 1 -19z"/>
<path d="M3113 146 l-21 -23 24 0 c27 0 49 21 39 37 -9 15 -17 12 -42 -14z"/>
</g>
</svg>
